<?xml version="1.0" encoding="UTF-8"?>
<svg id="Layer_1" data-name="Layer 1" xmlns="http://www.w3.org/2000/svg" viewBox="0 0 613.67 353.16">
  <defs>
    <style>
      .cls-1 {
        opacity: .53;
        stroke: #2bb673;
      }

      .cls-1, .cls-2, .cls-3, .cls-4, .cls-5, .cls-6, .cls-7, .cls-8 {
        stroke-miterlimit: 10;
      }

      .cls-1, .cls-2, .cls-4, .cls-5, .cls-7 {
        stroke-width: 13px;
      }

      .cls-1, .cls-9 {
        fill: #2bb673;
      }

      .cls-10, .cls-8 {
        fill: #726658;
      }

      .cls-2, .cls-3, .cls-4 {
        fill: none;
      }

      .cls-2, .cls-8 {
        stroke: #726658;
      }

      .cls-3, .cls-6 {
        stroke: #939598;
        stroke-width: 9px;
      }

      .cls-11 {
        fill: #00a14b;
      }

      .cls-4 {
        stroke: #4b6f43;
      }

      .cls-5 {
        stroke: #c2b59b;
      }

      .cls-5, .cls-12 {
        fill: #c2b59b;
      }

      .cls-6 {
        fill: #939598;
      }

      .cls-7 {
        fill: #f9f4eb;
        stroke: #f9f4eb;
      }

      .cls-8 {
        stroke-width: .25px;
      }
    </style>
  </defs>
  <rect class="cls-7" x="6.5" y="6.5" width="600.67" height="340.16"/>
  <path class="cls-3" d="M153.05,145.84c13.01,1.68,25.53,3.61,38.54,5.28,4.79.62,10.09.98,14.88,1.6,7.3.5,14.77,1.9,22.07,2.4,7.51.51,14.04.64,22.37.64,7.05-.35,14.07-.29,21.12-.64,7.03-.35,13.38-1.12,20.35-1.76,9.7-1.44,20.2-2.56,29.9-4"/>
  <path class="cls-6" d="M268.45,57.4c10.58,17.61,21.15,35.21,31.73,52.82,3.78,5.94,1.56,2.23,5.33,8.17l6.71,11.5c.67,1.12,7.5,14.27,8.11,15.43,2.07,3.92,3.29,7.63,5.21,10.87,2.81,9.07,4.1,11.85,6.91,20.92"/>
  <polyline class="cls-6" points="175.19 61.17 169.8 80.53 164.77 104.54 161.06 119.82 158.56 139.67 158.56 142.77"/>
  <rect class="cls-2" x="122.81" y="89.68" width="3.78" height="17.96" transform="translate(21.68 -22.46) rotate(11.27)"/>
  <polygon class="cls-5" points="224.79 136.3 172.95 133.8 175.19 112.07 224.34 113.32 224.79 136.3"/>
  <g>
    <path class="cls-11" d="M131.52,120.64c.09.44-.14.92-.42,1.25l-.27.29c-.1.11-.2.2-.32.3.13.21.14.48.03.7-.07.14-.17.26-.29.37.17.13.29.27.25.5-.04.22-.23.36-.45.33-.08-.01-.15-.03-.23-.06.04.32-.02.58-.28.78-.28.19-.79.34-1.06.03-.03.33-.21.61-.5.77-.38.2-.72.02-.99-.26h-.02c.02.13.04.23.04.36,0,.17-.08.33-.22.42-.08.05-.19.04-.28.02-.26-.06-.48-.21-.67-.4-.04.26-.08.58-.33.72-.08.04-.16.03-.21-.04-.11-.15-.13-.38-.15-.57-.19.26-.61.44-.9.38-.23-.05-.42-.19-.55-.38h-.02c-.21.24-.57.39-.88.38-.48-.02-.73-.47-.77-.91-.14.16-.34.35-.57.32-.29-.03-.45-.27-.51-.54-.33-.17-.62-.47-.6-.87-.28.12-.6.05-.8-.19-.17-.21-.11-.51.03-.73-.54,0-.96-.36-1.01-.9-.03-.27,0-.54.06-.82-.28.02-.58-.15-.67-.43-.11-.31-.08-.55.08-.83.16-.29.41-.51.71-.68-.13-.15-.23-.34-.08-.51l.06-.06c-.22-.22-.3-.5-.13-.78.1-.16.2-.3.35-.42-.18-.18-.35-.35-.4-.61-.02-.15.02-.28.11-.39.13-.16.29-.11.45-.01-.18-.36-.13-.86.11-1.18.09-.12.21-.19.35-.22.25-.05.51.01.77.07-.03-.14.04-.26.15-.33.2-.14.38.02.52.16,0-.22.08-.42.2-.59.07-.1.18-.15.31-.12.21.04.41.2.57.34,0-.25.05-.54.21-.74.09-.11.22-.18.36-.18.3,0,.32.47.31.68.2-.26.48-.51.81-.56.38-.06.73.19.81.56h.02c.32-.3.64-.54,1.07-.66.22-.06.5-.05.64.16.08.12.12.26.1.4l-.03.21c.26-.12.3-.2.58-.28.19-.05.39-.08.58-.06.29.03.46.22.57.47.44-.17.91-.15,1.22.23.25.32.28.74.16,1.12.12,0,.24-.02.35.03.25.13.4.38.44.66.03.25,0,.49-.08.73,0,0,0,.02,0,.02.16-.03.29-.08.49-.05.15.02.28.11.33.25.07.2-.15.43-.28.55.14.03.33.07.42.16.15.15.04.41-.08.55-.07.09-.16.16-.25.23v.02c.29.19.65.5.72.86ZM127.63,116.99c.05-.24-.01-.54-.28-.62-.37-.1-.89.16-1.19.38-.07-.15-.21-.24-.38-.21-.09.02-.17.05-.27.09h0c.12-.19.25-.43.2-.64-.03-.12-.12-.22-.24-.26-.21-.06-.45.22-.56.37-.02-.21-.06-.43-.2-.59-.14-.16-.36-.2-.55-.11-.33.16-.48.53-.41.89-.35-.24-.81-.17-1.09.14.01-.26-.1-.51-.38-.52-.22,0-.34.11-.45.27-.05-.21-.08-.47-.26-.58-.08-.05-.16-.02-.21.06-.04.08-.06.17-.06.26,0,.26.03.5.06.77-.22-.35-.5-.69-.94-.73-.03,0-.04.02-.04.04,0,.21.07.4.17.6-.2-.12-.45-.26-.68-.17-.16.06-.25.22-.23.4.05.4.33.75.59,1.05-.14.07-.2.21-.17.36.05.2.16.32.27.49-.21-.1-.36-.18-.6-.17-.16,0-.28.1-.33.25-.09.32,0,.66.22.9.07.08.15.14.24.2-.17.03-.4.11-.35.33.04.2.26.31.45.37-.17.12-.31.27-.41.46-.13.25-.14.55.12.71.23.14.55.15.83.1-.09.12-.21.29-.08.43.32.35.89-.19,1.16-.38-.06.16-.13.32-.17.49-.07.27-.06.61.26.71.58.18,1.1-.75,1.25-1.21.03.28.11.77.48.75.4-.02.46-.74.48-1.05.06.14.14.27.28.33.1.05.21.05.31-.02.09.24.19.45.4.62.11.09.25.11.39.06.37-.15.39-.58.28-.92.37.07.74-.2.89-.52.14-.3,0-.69-.19-.93.3-.05.61-.1.85-.28.11-.08.17-.19.2-.32.06-.29-.22-.42-.45-.46.2-.06.39-.13.53-.28.18-.18.25-.45.19-.7-.05-.2-.2-.32-.41-.35.21-.26.38-.53.46-.85Z"/>
    <path class="cls-9" d="M127.35,116.37c.27.07.33.38.28.62-.08.32-.25.59-.46.85.21.02.36.14.41.35.06.24,0,.52-.19.7-.15.15-.33.22-.53.28.22.04.5.17.45.46-.03.13-.09.24-.2.32-.24.18-.55.23-.85.28.2.24.33.63.19.93-.15.32-.52.6-.89.52.11.34.09.77-.28.92-.13.05-.28.03-.39-.06-.21-.16-.31-.37-.4-.62-.1.07-.21.06-.31.02-.14-.06-.22-.19-.28-.33-.02.31-.07,1.03-.48,1.05-.37.02-.45-.47-.48-.75-.16.46-.67,1.39-1.25,1.21-.32-.1-.32-.44-.26-.71.04-.17.1-.32.17-.49-.27.2-.84.73-1.16.38-.12-.14-.01-.31.08-.43-.28.05-.6.04-.83-.1-.26-.16-.25-.46-.12-.71.09-.19.23-.34.41-.46-.19-.06-.41-.17-.45-.37-.05-.22.18-.3.35-.33-.09-.06-.17-.12-.24-.2-.23-.24-.32-.58-.22-.9.05-.15.17-.25.33-.25.24,0,.39.07.6.17-.12-.17-.22-.29-.27-.49-.04-.15.03-.29.17-.36-.26-.3-.54-.65-.59-1.05-.02-.18.07-.33.23-.4.23-.09.48.05.68.17-.1-.2-.16-.39-.17-.6,0-.03.02-.04.04-.04.43.05.72.39.94.73-.03-.26-.06-.51-.06-.77,0-.09.02-.19.06-.26.05-.08.13-.11.21-.06.18.11.22.37.26.58.11-.15.23-.27.45-.27.27,0,.39.26.38.52.28-.31.74-.38,1.09-.14-.07-.36.08-.73.41-.89.19-.09.41-.05.55.11.14.16.18.37.2.59.12-.16.35-.43.56-.37.12.03.21.14.24.26.05.21-.08.45-.2.63h0c.09-.02.17-.06.27-.07.16-.03.31.06.38.21.3-.22.82-.48,1.19-.38Z"/>
  </g>
  <g>
    <path class="cls-9" d="M143.48,100.56c.22.04.5.17.45.46-.03.13-.09.24-.2.32-.24.18-.55.23-.85.28.2.24.33.63.19.93-.15.32-.52.6-.89.52.11.34.09.77-.28.92-.13.05-.28.03-.39-.06-.21-.16-.31-.37-.4-.62-.1.07-.21.06-.31.02-.14-.06-.22-.19-.28-.33-.02.31-.07,1.03-.48,1.05-.37.02-.45-.47-.48-.75-.16.46-.67,1.39-1.25,1.21-.32-.1-.32-.44-.26-.71.04-.17.1-.32.17-.49-.27.2-.84.73-1.16.38-.12-.14-.01-.31.08-.43-.28.05-.6.04-.83-.1-.26-.16-.25-.46-.12-.71.09-.19.23-.34.41-.46-.19-.06-.41-.17-.45-.37-.05-.22.18-.3.35-.33-.09-.06-.17-.12-.24-.2-.23-.24-.32-.58-.22-.9.05-.15.17-.25.33-.25.24,0,.39.07.6.17-.12-.17-.22-.29-.27-.49-.04-.15.03-.29.17-.36-.26-.3-.54-.65-.59-1.05-.02-.18.07-.33.23-.4.23-.09.48.05.68.17-.1-.2-.16-.39-.17-.6,0-.03.02-.04.04-.04.43.05.72.39.94.73-.03-.26-.06-.51-.06-.77,0-.09.02-.19.06-.26.05-.08.13-.11.21-.06.18.11.22.37.26.58.11-.15.23-.27.45-.27.27,0,.39.26.38.52.28-.31.74-.38,1.09-.14-.07-.36.08-.73.41-.89.19-.09.41-.05.55.11.14.16.18.37.2.59.12-.16.35-.43.56-.37.12.03.21.14.24.26.05.21-.08.45-.2.63h0c.09-.02.17-.06.27-.07.16-.03.31.06.38.21.3-.22.82-.48,1.19-.38.27.07.33.38.28.62-.08.32-.25.59-.46.85.21.02.36.14.41.35.06.24,0,.52-.19.7-.15.15-.33.22-.53.28Z"/>
    <path class="cls-11" d="M136.15,101.63c.04.2.26.31.45.37-.17.12-.31.27-.41.46-.13.25-.14.55.12.71.23.14.55.15.83.1-.09.12-.21.29-.08.43.32.35.89-.19,1.16-.38-.06.16-.13.32-.17.49-.07.27-.06.61.26.71.58.18,1.1-.75,1.25-1.21.03.28.11.77.48.75.4-.02.46-.74.48-1.05.06.14.14.27.28.33.1.05.21.05.31-.02.09.24.19.45.4.62.11.09.25.11.39.06.37-.15.39-.58.28-.92.37.07.74-.2.89-.52.14-.3,0-.69-.19-.93.3-.05.61-.1.85-.28.11-.08.17-.19.2-.32.06-.29-.22-.42-.45-.46.2-.06.39-.13.53-.28.18-.18.25-.45.19-.7-.05-.2-.2-.32-.41-.35.21-.26.38-.53.46-.85.05-.24-.01-.54-.28-.62-.37-.1-.89.16-1.19.38-.07-.15-.21-.24-.38-.21-.09.02-.17.05-.27.09h0c.12-.19.25-.43.2-.64-.03-.12-.12-.22-.24-.26-.21-.06-.45.22-.56.37-.02-.21-.06-.43-.2-.59-.14-.16-.36-.2-.55-.11-.33.16-.48.53-.41.89-.35-.24-.81-.17-1.09.14.01-.26-.1-.51-.38-.52-.22,0-.34.11-.45.27-.05-.21-.08-.47-.26-.58-.08-.05-.16-.02-.21.06-.04.08-.06.17-.06.26,0,.26.03.5.06.77-.22-.35-.5-.69-.94-.73-.03,0-.04.02-.04.04,0,.21.07.4.17.6-.2-.12-.45-.26-.68-.17-.16.06-.25.22-.23.4.05.4.33.75.59,1.05-.14.07-.2.21-.17.36.05.2.16.32.27.49-.21-.1-.36-.18-.6-.17-.16,0-.28.1-.33.25-.09.32,0,.66.22.9.07.08.15.14.24.2-.17.03-.4.11-.35.33ZM148.15,102.04c.09.44-.14.92-.42,1.25l-.27.29c-.1.11-.2.2-.32.3.13.21.14.48.03.7-.07.14-.17.26-.29.37.17.13.29.27.25.5-.04.22-.23.36-.45.33-.08-.01-.15-.03-.23-.06.04.32-.02.58-.28.78-.28.19-.79.34-1.06.03-.03.33-.21.61-.5.77-.38.2-.72.02-.99-.26h-.02c.02.13.04.23.04.36,0,.17-.08.33-.22.42-.08.05-.19.04-.28.02-.26-.06-.48-.21-.67-.4-.04.26-.08.58-.33.72-.08.04-.16.03-.21-.04-.11-.15-.13-.38-.15-.57-.19.26-.61.44-.9.38-.23-.05-.42-.19-.55-.38h-.02c-.21.24-.57.39-.88.38-.48-.02-.73-.47-.77-.91-.14.16-.34.35-.57.32-.29-.03-.45-.27-.51-.54-.33-.17-.62-.47-.6-.87-.28.12-.6.05-.8-.19-.17-.21-.11-.51.03-.73-.54,0-.96-.36-1.01-.9-.03-.27,0-.54.06-.82-.28.02-.58-.15-.67-.43-.11-.31-.08-.55.08-.83.16-.29.41-.51.71-.68-.13-.15-.23-.34-.08-.51l.06-.06c-.22-.22-.3-.5-.13-.78.1-.16.2-.3.35-.42-.18-.18-.35-.35-.4-.61-.02-.15.02-.28.11-.39.13-.16.29-.11.45-.01-.18-.36-.13-.86.11-1.18.09-.12.21-.19.35-.22.25-.05.51.01.77.07-.03-.14.04-.26.15-.33.2-.14.38.02.52.16,0-.22.08-.42.2-.59.07-.1.18-.15.31-.12.21.04.41.2.57.34,0-.25.05-.54.21-.74.09-.11.22-.18.36-.18.3,0,.32.47.31.68.2-.26.48-.51.81-.56.38-.06.73.19.81.56h.02c.32-.3.64-.54,1.07-.66.22-.06.5-.05.64.16.08.12.12.26.1.4l-.03.21c.26-.12.3-.2.58-.28.19-.05.39-.08.58-.06.29.03.46.22.57.47.44-.17.91-.15,1.22.23.25.32.28.74.16,1.12.12,0,.24-.02.35.03.25.13.4.38.44.66.03.25,0,.49-.08.73,0,0,0,.02,0,.02.16-.03.29-.08.49-.05.15.02.28.11.33.25.07.2-.15.43-.28.55.14.03.33.07.42.16.15.15.04.41-.08.55-.07.09-.16.16-.25.23v.02c.29.19.65.5.72.86Z"/>
  </g>
  <g>
    <path class="cls-11" d="M154.29,93.73c.39.22.6.71.67,1.13l.05.39c.02.14.02.28.02.43.25.03.45.2.55.44.06.15.08.3.09.46.21-.04.4-.05.54.14.14.17.12.41-.04.56-.06.05-.13.09-.19.14.27.18.43.39.41.72-.04.34-.25.82-.67.82.23.24.33.56.26.89-.09.42-.46.56-.85.58h-.02c.11.08.21.14.3.22.12.11.2.27.17.44-.02.09-.09.17-.17.22-.22.16-.47.23-.74.24.17.2.38.44.33.72-.02.09-.08.14-.17.14-.19-.01-.38-.15-.53-.25.07.31-.06.75-.3.93-.18.14-.42.2-.65.17l-.02.02c.05.31-.08.69-.29.92-.33.36-.84.25-1.19,0,.03.21.04.49-.13.64-.21.2-.5.16-.74.04-.34.14-.76.16-1.06-.11-.09.29-.36.49-.67.48-.27,0-.46-.25-.53-.49-.36.41-.9.49-1.34.18-.23-.16-.41-.35-.58-.58-.17.23-.49.34-.77.23-.3-.12-.47-.3-.57-.6-.11-.31-.12-.64-.05-.98-.2,0-.41-.04-.44-.27v-.08c-.32.03-.59-.1-.69-.41-.05-.17-.09-.35-.09-.53-.26.02-.49.04-.72-.1-.13-.08-.2-.2-.22-.34-.04-.2.11-.29.28-.35-.39-.1-.74-.46-.82-.85-.03-.14-.01-.28.06-.41.13-.22.34-.38.55-.53-.12-.07-.17-.2-.15-.33.03-.24.26-.28.46-.29-.16-.15-.27-.33-.32-.54-.03-.12,0-.23.11-.31.17-.13.42-.18.63-.21-.18-.17-.38-.4-.43-.64-.03-.14,0-.28.1-.39.2-.23.56.07.71.21-.07-.32-.07-.7.11-.98.2-.32.62-.43.95-.25h.02c-.03-.45,0-.85.19-1.25.1-.21.29-.41.54-.38.14.02.27.08.37.19l.14.16c.08-.28.04-.36.17-.62.09-.18.19-.34.34-.48.21-.2.47-.21.73-.13.16-.44.48-.79.97-.77.4.02.74.27.95.61.07-.09.14-.2.25-.25.26-.11.55-.06.79.09.21.14.36.33.5.54,0,0,.01.02.02.01.09-.14.13-.27.29-.41.11-.1.26-.14.4-.08.2.08.23.39.23.57.12-.09.26-.2.4-.22.21-.02.34.24.37.42.02.11.02.22.01.34h.01c.34-.09.81-.15,1.12.02ZM148.98,94.29c-.15-.2-.42-.35-.65-.19-.32.21-.46.78-.49,1.14-.16-.05-.32,0-.4.15-.05.08-.08.16-.11.26h0c-.06-.21-.15-.47-.34-.57-.11-.06-.25-.05-.35.02-.18.12-.13.48-.09.67-.18-.12-.37-.24-.58-.23-.21,0-.39.14-.45.35-.1.36.09.71.41.89-.41.11-.66.5-.61.92-.19-.18-.45-.26-.64-.05-.15.16-.14.33-.09.51-.19-.1-.41-.24-.61-.18-.09.03-.12.11-.09.2.03.08.09.16.16.22.2.17.4.31.62.45-.4-.06-.85-.07-1.17.23-.02.02-.01.05,0,.06.17.13.35.21.56.26-.23.07-.49.17-.58.4-.06.16,0,.34.15.43.33.22.79.24,1.18.23-.03.15.03.29.16.36.18.09.35.09.55.11-.21.09-.37.16-.52.34-.1.12-.11.28-.02.41.18.28.5.43.82.42.11,0,.2-.03.31-.05-.09.15-.17.37.02.48.18.1.41,0,.58-.1-.02.21,0,.41.08.61.11.26.33.46.62.37.26-.08.47-.32.62-.56.03.15.09.35.27.34.47-.01.44-.8.47-1.13.08.15.16.3.26.44.16.23.42.45.71.27.51-.33.15-1.32-.1-1.74.23.15.65.42.89.12.25-.32-.26-.83-.49-1.05.15.05.29.07.43,0,.1-.05.17-.13.19-.24.24.09.47.15.73.1.14-.03.25-.12.3-.26.13-.37-.18-.67-.51-.81.3-.24.33-.69.19-1.02-.13-.3-.52-.45-.83-.46.16-.26.32-.53.34-.83,0-.14-.03-.26-.11-.36-.18-.24-.46-.11-.64.04.09-.19.15-.38.14-.59-.02-.25-.18-.48-.4-.6-.18-.09-.38-.06-.53.09-.06-.33-.15-.63-.34-.9Z"/>
    <path class="cls-9" d="M148.33,94.1c.23-.15.5,0,.65.19.19.27.28.57.34.9.15-.14.35-.18.53-.09.22.11.39.34.4.6.01.21-.05.4-.14.59.18-.14.46-.27.64-.04.08.11.12.23.11.36-.02.3-.19.57-.34.83.31,0,.7.16.83.46.14.33.11.78-.19,1.02.33.14.64.44.51.81-.05.14-.16.23-.3.26-.26.05-.48-.01-.73-.1-.01.12-.09.2-.19.24-.14.06-.29.05-.43,0,.22.22.74.73.49,1.05-.23.3-.65.03-.89-.12.24.42.61,1.41.1,1.74-.28.18-.54-.04-.71-.27-.1-.14-.18-.29-.26-.44-.02.33,0,1.12-.47,1.13-.18,0-.24-.19-.27-.34-.14.24-.36.48-.62.56-.29.09-.51-.11-.62-.37-.08-.19-.1-.4-.08-.61-.17.11-.4.2-.58.1-.2-.11-.11-.33-.02-.48-.1.03-.2.05-.31.05-.33.02-.65-.14-.82-.42-.09-.14-.07-.29.02-.41.15-.19.3-.25.52-.34-.2-.02-.37-.02-.55-.11-.14-.07-.2-.21-.16-.36-.4,0-.85-.01-1.18-.23-.15-.1-.21-.27-.15-.43.08-.23.35-.33.58-.4-.21-.05-.4-.13-.56-.26-.02-.02-.02-.04,0-.06.32-.3.76-.29,1.17-.23-.22-.15-.42-.29-.62-.45-.07-.06-.13-.14-.16-.22-.03-.09,0-.17.09-.2.2-.06.42.08.61.18-.05-.18-.06-.35.09-.51.18-.2.45-.12.64.05-.05-.42.2-.81.61-.92-.32-.18-.51-.54-.41-.89.06-.21.23-.34.45-.35.21,0,.4.11.58.23-.04-.19-.1-.55.09-.67.1-.07.24-.07.35-.02.19.1.29.36.34.56h0c.03-.08.06-.16.11-.25.09-.14.25-.2.4-.15.03-.37.17-.93.49-1.14Z"/>
  </g>
  <g>
    <path class="cls-9" d="M144.87,89.35c.22.04.5.17.45.46-.03.13-.09.24-.2.32-.24.18-.55.23-.85.28.2.24.33.63.19.93-.15.32-.52.6-.89.52.11.34.09.77-.28.92-.13.05-.28.03-.39-.06-.21-.16-.31-.37-.4-.62-.1.07-.21.06-.31.02-.14-.06-.22-.19-.28-.33-.02.31-.07,1.03-.48,1.05-.37.02-.45-.47-.48-.75-.16.46-.67,1.39-1.25,1.21-.32-.1-.32-.44-.26-.71.04-.17.1-.32.17-.49-.27.2-.84.73-1.16.38-.12-.14-.01-.31.08-.43-.28.05-.6.04-.83-.1-.26-.16-.25-.46-.12-.71.09-.19.23-.34.41-.46-.19-.06-.41-.17-.45-.37-.05-.22.18-.3.35-.33-.09-.06-.17-.12-.24-.2-.23-.24-.32-.58-.22-.9.05-.15.17-.25.33-.25.24,0,.39.07.6.17-.12-.17-.22-.29-.27-.49-.04-.15.03-.29.17-.36-.26-.3-.54-.65-.59-1.05-.02-.18.07-.33.23-.4.23-.09.48.05.68.17-.1-.2-.16-.39-.17-.6,0-.03.02-.04.04-.04.43.05.72.39.94.73-.03-.26-.06-.51-.06-.77,0-.09.02-.19.06-.26.05-.08.13-.11.21-.06.18.11.22.37.26.58.11-.15.23-.27.45-.27.27,0,.39.26.38.52.28-.31.74-.38,1.09-.14-.07-.36.08-.73.41-.89.19-.09.41-.05.55.11.14.16.18.37.2.59.12-.16.35-.43.56-.37.12.03.21.14.24.26.05.21-.08.45-.2.63h0c.09-.02.17-.06.27-.07.16-.03.31.06.38.21.3-.22.82-.48,1.19-.38.27.07.33.38.28.62-.08.32-.25.59-.46.85.21.02.36.14.41.35.06.24,0,.52-.19.7-.15.15-.33.22-.53.28Z"/>
    <path class="cls-11" d="M137.7,91.96c.23.14.55.15.83.1-.09.12-.21.29-.08.43.32.35.89-.19,1.16-.38-.06.16-.13.32-.17.49-.07.27-.06.61.26.71.58.18,1.1-.75,1.25-1.21.03.28.11.77.48.75.4-.02.46-.74.48-1.05.06.14.14.27.28.33.1.05.21.05.31-.02.09.24.19.45.4.62.11.09.25.11.39.06.37-.15.39-.58.28-.92.37.07.74-.2.89-.52.14-.3,0-.69-.19-.93.3-.05.61-.1.85-.28.11-.08.17-.19.2-.32.06-.29-.22-.42-.45-.46.2-.06.39-.13.53-.28.18-.18.25-.45.19-.7-.05-.2-.2-.32-.41-.35.21-.26.38-.53.46-.85.05-.24-.01-.54-.28-.62-.37-.1-.89.16-1.19.38-.07-.15-.21-.24-.38-.21-.09.02-.17.05-.27.09h0c.12-.19.25-.43.2-.64-.03-.12-.12-.22-.24-.26-.21-.06-.45.22-.56.37-.02-.21-.06-.43-.2-.59-.14-.16-.36-.2-.55-.11-.33.16-.48.53-.41.89-.35-.24-.81-.17-1.09.14.01-.26-.1-.51-.38-.52-.22,0-.34.11-.45.27-.05-.21-.08-.47-.26-.58-.08-.05-.16-.02-.21.06-.04.08-.06.17-.06.26,0,.26.03.5.06.77-.22-.35-.5-.69-.94-.73-.03,0-.04.02-.04.04,0,.21.07.4.17.6-.2-.12-.45-.26-.68-.17-.16.06-.25.22-.23.4.05.4.33.75.59,1.05-.14.07-.2.21-.17.36.05.2.16.32.27.49-.21-.1-.36-.18-.6-.17-.16,0-.28.1-.33.25-.09.32,0,.66.22.9.07.08.15.14.24.2-.17.03-.4.11-.35.33.04.2.26.31.45.37-.17.12-.31.27-.41.46-.13.25-.14.55.12.71ZM149.53,90.83c.09.44-.14.92-.42,1.25l-.27.29c-.1.11-.2.2-.32.3.13.21.14.48.03.7-.07.14-.17.26-.29.37.17.13.29.27.25.5-.04.22-.23.36-.45.33-.08-.01-.15-.03-.23-.06.04.32-.02.58-.28.78-.28.19-.79.34-1.06.03-.03.33-.21.61-.5.77-.38.2-.72.02-.99-.26h-.02c.02.13.04.23.04.36,0,.17-.08.33-.22.42-.08.05-.19.04-.28.02-.26-.06-.48-.21-.67-.4-.04.26-.08.58-.33.72-.08.04-.16.03-.21-.04-.11-.15-.13-.38-.15-.57-.19.26-.61.44-.9.38-.23-.05-.42-.19-.55-.38h-.02c-.21.24-.57.39-.88.38-.48-.02-.73-.47-.77-.91-.14.16-.34.35-.57.32-.29-.03-.45-.27-.51-.54-.33-.17-.62-.47-.6-.87-.28.12-.6.05-.8-.19-.17-.21-.11-.51.03-.73-.54,0-.96-.36-1.01-.9-.03-.27,0-.54.06-.82-.28.02-.58-.15-.67-.43-.11-.31-.08-.55.08-.83.16-.29.41-.51.71-.68-.13-.15-.23-.34-.08-.51l.06-.06c-.22-.22-.3-.5-.13-.78.1-.16.2-.3.35-.42-.18-.18-.35-.35-.4-.61-.02-.15.02-.28.11-.39.13-.16.29-.11.45-.01-.18-.36-.13-.86.11-1.18.09-.12.21-.19.35-.22.25-.05.51.01.77.07-.03-.14.04-.26.15-.33.2-.14.38.02.52.16,0-.22.08-.42.2-.59.07-.1.18-.15.31-.12.21.04.41.2.57.34,0-.25.05-.54.21-.74.09-.11.22-.18.36-.18.3,0,.32.47.31.68.2-.26.48-.51.81-.56.38-.06.73.19.81.56h.02c.32-.3.64-.54,1.07-.66.22-.06.5-.05.64.16.08.12.12.26.1.4l-.03.21c.26-.12.3-.2.58-.28.19-.05.39-.08.58-.06.29.03.46.22.57.47.44-.17.91-.15,1.22.23.25.32.28.74.16,1.12.12,0,.24-.02.35.03.25.13.4.38.44.66.03.25,0,.49-.08.73,0,0,0,.02,0,.02.16-.03.29-.08.49-.05.15.02.28.11.33.25.07.2-.15.43-.28.55.14.03.33.07.42.16.15.15.04.41-.08.55-.07.09-.16.16-.25.23v.02c.29.19.65.5.72.86Z"/>
  </g>
  <g>
    <path class="cls-9" d="M203.95,95.55c.22.04.5.17.45.46-.03.13-.09.24-.2.32-.24.18-.55.23-.85.28.2.24.33.63.19.93-.15.32-.52.6-.89.52.11.34.09.77-.28.92-.13.05-.28.03-.39-.06-.21-.16-.31-.37-.4-.62-.1.07-.21.06-.31.02-.14-.06-.22-.19-.28-.33-.02.31-.07,1.03-.48,1.05-.37.02-.45-.47-.48-.75-.16.46-.67,1.39-1.25,1.21-.32-.1-.32-.44-.26-.71.04-.17.1-.32.17-.49-.27.2-.84.73-1.16.38-.12-.14-.01-.31.08-.43-.28.05-.6.04-.83-.1-.26-.16-.25-.46-.12-.71.09-.19.23-.34.41-.46-.19-.06-.41-.17-.45-.37-.05-.22.18-.3.35-.33-.09-.06-.17-.12-.24-.2-.23-.24-.32-.58-.22-.9.05-.15.17-.25.33-.25.24,0,.39.07.6.17-.12-.17-.22-.29-.27-.49-.04-.15.03-.29.17-.36-.26-.3-.54-.65-.59-1.05-.02-.18.07-.33.23-.4.23-.09.48.05.68.17-.1-.2-.16-.39-.17-.6,0-.03.02-.04.04-.04.43.05.72.39.94.73-.03-.26-.06-.51-.06-.77,0-.09.02-.19.06-.26.05-.08.13-.11.21-.06.18.11.22.37.26.58.11-.15.23-.27.45-.27.27,0,.39.26.38.52.28-.31.74-.38,1.09-.14-.07-.36.08-.73.41-.89.19-.09.41-.05.55.11.14.16.18.37.2.59.12-.16.35-.43.56-.37.12.03.21.14.24.26.05.21-.08.45-.2.63h0c.09-.02.17-.06.27-.07.16-.03.31.06.38.21.3-.22.82-.48,1.19-.38.27.07.33.38.28.62-.08.32-.25.59-.46.85.21.02.36.14.41.35.06.24,0,.52-.19.7-.15.15-.33.22-.53.28Z"/>
    <path class="cls-11" d="M200.04,98.3c.03.28.11.77.48.75.4-.02.46-.74.48-1.05.06.14.14.27.28.33.1.05.21.05.31-.02.09.24.19.45.4.62.11.09.25.11.39.06.37-.15.39-.58.28-.92.37.07.74-.2.89-.52.14-.3,0-.69-.19-.93.3-.05.61-.1.85-.28.11-.08.17-.19.2-.32.06-.29-.22-.42-.45-.46.2-.06.39-.13.53-.28.18-.18.25-.45.19-.7-.05-.2-.2-.32-.41-.35.21-.26.38-.53.46-.85.05-.24-.01-.54-.28-.62-.37-.1-.89.16-1.19.38-.07-.15-.21-.24-.38-.21-.09.02-.17.05-.27.09h0c.12-.19.25-.43.2-.64-.03-.12-.12-.22-.24-.26-.21-.06-.45.22-.56.37-.02-.21-.06-.43-.2-.59-.14-.16-.36-.2-.55-.11-.33.16-.48.53-.41.89-.35-.24-.81-.17-1.09.14.01-.26-.1-.51-.38-.52-.22,0-.34.11-.45.27-.05-.21-.08-.47-.26-.58-.08-.05-.16-.02-.21.06-.04.08-.06.17-.06.26,0,.26.03.5.06.77-.22-.35-.5-.69-.94-.73-.03,0-.04.02-.04.04,0,.21.07.4.17.6-.2-.12-.45-.26-.68-.17-.16.06-.25.22-.23.4.05.4.33.75.59,1.05-.14.07-.2.21-.17.36.05.2.16.32.27.49-.21-.1-.36-.18-.6-.17-.16,0-.28.1-.33.25-.09.32,0,.66.22.9.07.08.15.14.24.2-.17.03-.4.11-.35.33.04.2.26.31.45.37-.17.12-.31.27-.41.46-.13.25-.14.55.12.71.23.14.55.15.83.1-.09.12-.21.29-.08.43.32.35.89-.19,1.16-.38-.06.16-.13.32-.17.49-.07.27-.06.61.26.71.58.18,1.1-.75,1.25-1.21ZM208.62,97.03c.09.44-.14.92-.42,1.25l-.27.29c-.1.11-.2.2-.32.3.13.21.14.48.03.7-.07.14-.17.26-.29.37.17.13.29.27.25.5-.04.22-.23.36-.45.33-.08-.01-.15-.03-.23-.06.04.32-.02.58-.28.78-.28.19-.79.34-1.06.03-.03.33-.21.61-.5.77-.38.2-.72.02-.99-.26h-.02c.02.13.04.23.04.36,0,.17-.08.33-.22.42-.08.05-.19.04-.28.02-.26-.06-.48-.21-.67-.4-.04.26-.08.58-.33.72-.08.04-.16.03-.21-.04-.11-.15-.13-.38-.15-.57-.19.26-.61.44-.9.38-.23-.05-.42-.19-.55-.38h-.02c-.21.24-.57.39-.88.38-.48-.02-.73-.47-.77-.91-.14.16-.34.35-.57.32-.29-.03-.45-.27-.51-.54-.33-.17-.62-.47-.6-.87-.28.12-.6.05-.8-.19-.17-.21-.11-.51.03-.73-.54,0-.96-.36-1.01-.9-.03-.27,0-.54.06-.82-.28.02-.58-.15-.67-.43-.11-.31-.08-.55.08-.83.16-.29.41-.51.71-.68-.13-.15-.23-.34-.08-.51l.06-.06c-.22-.22-.3-.5-.13-.78.1-.16.2-.3.35-.42-.18-.18-.35-.35-.4-.61-.02-.15.02-.28.11-.39.13-.16.29-.11.45-.01-.18-.36-.13-.86.11-1.18.09-.12.21-.19.35-.22.25-.05.51.01.77.07-.03-.14.04-.26.15-.33.2-.14.38.02.52.16,0-.22.08-.42.2-.59.07-.1.18-.15.31-.12.21.04.41.2.57.34,0-.25.05-.54.21-.74.09-.11.22-.18.36-.18.3,0,.32.47.31.68.2-.26.48-.51.81-.56.38-.06.73.19.81.56h.02c.32-.3.64-.54,1.07-.66.22-.06.5-.05.64.16.08.12.12.26.1.4l-.03.21c.26-.12.3-.2.58-.28.19-.05.39-.08.58-.06.29.03.46.22.57.47.44-.17.91-.15,1.22.23.25.32.28.74.16,1.12.12,0,.24-.02.35.03.25.13.4.38.44.66.03.25,0,.49-.08.73,0,0,0,.02,0,.02.16-.03.29-.08.49-.05.15.02.28.11.33.25.07.2-.15.43-.28.55.14.03.33.07.42.16.15.15.04.41-.08.55-.07.09-.16.16-.25.23v.02c.29.19.65.5.72.86Z"/>
  </g>
  <g>
    <path class="cls-11" d="M198.89,101.95c-.1.29-.39.49-.67.59l-.25.08c-.09.03-.18.05-.29.07,0,.17-.08.33-.22.42-.09.06-.19.09-.29.12.05.13.08.26-.02.37-.1.11-.26.13-.38.04-.04-.03-.08-.07-.11-.11-.08.2-.21.34-.43.36-.23.02-.57-.06-.62-.34-.13.18-.33.29-.55.28-.29,0-.43-.23-.49-.49h0c-.03.07-.06.14-.1.22-.06.1-.16.17-.27.17-.06,0-.12-.04-.17-.08-.13-.12-.21-.28-.25-.46-.11.14-.24.31-.44.31-.06,0-.1-.03-.11-.09-.02-.13.05-.27.1-.38-.2.09-.5.06-.65-.08-.12-.1-.18-.25-.19-.41h-.01c-.2.06-.46.03-.64-.08-.28-.17-.27-.52-.14-.79-.14.05-.32.09-.44,0-.16-.12-.17-.31-.12-.49-.14-.21-.2-.48-.06-.71-.2-.02-.37-.17-.4-.38-.03-.18.11-.33.26-.42-.32-.18-.43-.53-.29-.86.07-.17.18-.32.31-.46-.17-.08-.29-.28-.25-.48.04-.21.14-.35.33-.46.19-.11.41-.16.64-.16-.02-.13-.02-.28.13-.33l.05-.02c-.06-.2,0-.39.18-.5.11-.06.22-.11.34-.13-.04-.17-.09-.32-.03-.49.04-.09.1-.16.2-.19.13-.05.21.03.26.14.02-.27.21-.55.46-.65.09-.04.18-.04.28-.01.16.06.29.18.42.3.03-.09.11-.14.2-.14.16-.01.21.14.25.27.08-.13.19-.22.32-.28.08-.03.16-.02.22.03.11.1.17.26.22.39.09-.14.21-.3.37-.37.09-.04.19-.03.27.01.18.1.02.38-.05.5.2-.09.45-.14.66-.05.24.09.36.35.28.6h0c.29-.07.55-.1.84-.02.15.04.31.14.32.31,0,.1-.02.19-.08.27l-.09.12c.19.02.24-.02.43.03.13.03.25.08.36.16.16.11.2.28.17.47.31.05.58.22.63.54.04.27-.09.53-.28.71.07.04.15.07.2.14.1.16.11.36.04.53-.06.16-.17.28-.29.4,0,0,0,.01,0,.01.11.04.2.05.3.14.08.06.12.16.11.26-.03.14-.23.2-.35.23.07.07.17.15.19.24.04.14-.12.25-.23.3-.07.03-.15.04-.22.05h0c.11.22.21.52.13.75ZM197.86,98.51c.11-.12.18-.32.05-.45-.18-.18-.57-.2-.82-.18.01-.11-.04-.21-.15-.25-.06-.02-.12-.03-.18-.04h0c.13-.07.28-.16.33-.31.02-.08,0-.17-.05-.23-.1-.11-.33-.02-.45.03.06-.13.11-.27.08-.41-.03-.14-.14-.24-.28-.25-.25-.02-.46.15-.54.38-.13-.26-.41-.37-.68-.28.09-.15.11-.33-.04-.43-.13-.08-.23-.05-.35,0,.04-.14.11-.3.04-.43-.03-.05-.09-.07-.14-.04-.05.03-.09.08-.12.13-.09.15-.15.3-.22.47,0-.28-.06-.57-.3-.74-.01,0-.03,0-.04.01-.07.13-.1.26-.11.41-.08-.14-.17-.31-.34-.33-.12-.02-.22.04-.27.15-.1.25-.06.55,0,.81-.1,0-.19.06-.22.15-.04.13-.02.24,0,.38-.09-.13-.15-.22-.29-.3-.09-.05-.2-.04-.28.04-.16.15-.22.38-.17.6.02.07.04.13.07.2-.11-.04-.27-.07-.32.08-.04.13.05.27.14.37-.14.01-.27.05-.39.13-.16.1-.27.27-.17.46.09.16.27.27.45.34-.1.04-.22.1-.19.22.07.31.58.19.8.16-.09.07-.18.14-.26.23-.13.14-.24.34-.09.5.28.3.89-.07,1.14-.29-.07.17-.2.49.03.6.24.12.51-.28.63-.46-.01.1,0,.2.05.29.04.06.11.1.19.09-.03.17-.04.33.02.49.04.09.11.15.21.16.26.04.42-.21.47-.44.19.17.5.13.7,0,.18-.13.23-.4.2-.61.19.07.39.15.59.12.09-.01.17-.05.23-.12.13-.15.01-.32-.1-.42.14.03.27.05.4.01.17-.04.3-.18.34-.34.04-.13,0-.26-.12-.34.21-.08.4-.18.55-.34Z"/>
    <path class="cls-9" d="M197.91,98.06c.13.13.06.33-.05.45-.16.16-.34.26-.55.34.11.08.16.21.12.34-.05.16-.18.3-.34.34-.14.04-.27.02-.4-.01.12.1.24.27.1.42-.06.07-.14.11-.23.12-.2.02-.4-.05-.59-.12.03.21-.02.48-.2.61-.2.14-.5.17-.7,0-.05.23-.21.48-.47.44-.1-.01-.17-.07-.21-.16-.07-.17-.05-.32-.02-.49-.08,0-.14-.03-.19-.09-.06-.08-.07-.18-.05-.29-.12.18-.39.58-.63.46-.22-.12-.1-.43-.03-.6-.24.21-.86.59-1.14.29-.15-.16-.04-.36.09-.5.08-.08.17-.15.26-.23-.22.03-.74.15-.8-.16-.03-.12.1-.18.19-.22-.18-.06-.36-.18-.45-.34-.1-.18.01-.35.17-.46.12-.08.25-.12.39-.13-.09-.1-.18-.24-.14-.37.05-.15.2-.12.32-.08-.03-.07-.06-.13-.07-.2-.05-.22.01-.45.17-.6.08-.07.18-.09.28-.04.14.07.2.17.29.3-.01-.14-.03-.25,0-.38.03-.1.12-.16.22-.15-.05-.26-.1-.56,0-.81.05-.11.15-.17.27-.15.16.02.26.19.34.33,0-.15.04-.28.11-.41,0-.02.03-.02.04-.01.24.17.29.47.3.74.07-.16.14-.32.22-.47.03-.06.07-.1.12-.13.05-.03.11-.02.14.04.07.13,0,.29-.04.43.12-.05.22-.08.35,0,.16.1.14.28.04.43.27-.09.56.03.68.28.08-.23.29-.4.54-.38.14.01.26.11.28.25.03.14-.02.28-.08.41.12-.05.35-.13.45-.03.06.06.08.15.05.23-.04.14-.2.24-.33.3h0c.07.02.12.02.18.05.11.04.16.14.15.25.25-.03.64,0,.82.18Z"/>
  </g>
  <g>
    <path class="cls-9" d="M288.89,113.12c.28-.31.74-.38,1.09-.14-.07-.36.08-.73.41-.89.19-.09.41-.05.55.11.14.16.18.37.2.59.12-.16.35-.43.56-.37.12.03.21.14.24.26.05.21-.08.45-.2.63h0c.09-.02.17-.06.27-.07.16-.03.31.06.38.21.3-.22.82-.48,1.19-.38.27.07.33.38.28.62-.08.32-.25.59-.46.85.21.02.36.14.41.35.06.24,0,.52-.19.7-.15.15-.33.22-.53.28.22.04.5.17.45.46-.03.13-.09.24-.2.32-.24.18-.55.23-.85.28.2.24.33.63.19.93-.15.32-.52.6-.89.52.11.34.09.77-.28.92-.13.05-.28.03-.39-.06-.21-.16-.31-.37-.4-.62-.1.07-.21.06-.31.02-.14-.06-.22-.19-.28-.33-.02.31-.07,1.03-.48,1.05-.37.02-.45-.47-.48-.75-.16.46-.67,1.39-1.25,1.21-.32-.1-.32-.44-.26-.71.04-.17.1-.32.17-.49-.27.2-.84.73-1.16.38-.12-.14-.01-.31.08-.43-.28.05-.6.04-.83-.1-.26-.16-.25-.46-.12-.71.09-.19.23-.34.41-.46-.19-.06-.41-.17-.45-.37-.05-.22.18-.3.35-.33-.09-.06-.17-.12-.24-.2-.23-.24-.32-.58-.22-.9.05-.15.17-.25.33-.25.24,0,.39.07.6.17-.12-.17-.22-.29-.27-.49-.04-.15.03-.29.17-.36-.26-.3-.54-.65-.59-1.05-.02-.18.07-.33.23-.4.23-.09.48.05.68.17-.1-.2-.16-.39-.17-.6,0-.03.02-.04.04-.04.43.05.72.39.94.73-.03-.26-.06-.51-.06-.77,0-.09.02-.19.06-.26.05-.08.13-.11.21-.06.18.11.22.37.26.58.11-.15.23-.27.45-.27.27,0,.39.26.38.52Z"/>
    <path class="cls-11" d="M286.47,114.56c-.14.07-.2.21-.17.36.05.2.16.32.27.49-.21-.1-.36-.18-.6-.17-.16,0-.28.1-.33.25-.09.32,0,.66.22.9.07.08.15.14.24.2-.17.03-.4.11-.35.33.04.2.26.31.45.37-.17.12-.31.27-.41.46-.13.25-.14.55.12.71.23.14.55.15.83.1-.09.12-.21.29-.08.43.32.35.89-.19,1.16-.38-.06.16-.13.32-.17.49-.07.27-.06.61.26.71.58.18,1.1-.75,1.25-1.21.03.28.11.77.48.75.4-.02.46-.74.48-1.05.06.14.14.27.28.33.1.05.21.05.31-.02.09.24.19.45.4.62.11.09.25.11.39.06.37-.15.39-.58.28-.92.37.07.74-.2.89-.52.14-.3,0-.69-.19-.93.3-.05.61-.1.85-.28.11-.08.17-.19.2-.32.06-.29-.22-.42-.45-.46.2-.06.39-.13.53-.28.18-.18.25-.45.19-.7-.05-.2-.2-.32-.41-.35.21-.26.38-.53.46-.85.05-.24-.01-.54-.28-.62-.37-.1-.89.16-1.19.38-.07-.15-.21-.24-.38-.21-.09.02-.17.05-.27.09h0c.12-.19.25-.43.2-.64-.03-.12-.12-.22-.24-.26-.21-.06-.45.22-.56.37-.02-.21-.06-.43-.2-.59-.14-.16-.36-.2-.55-.11-.33.16-.48.53-.41.89-.35-.24-.81-.17-1.09.14.01-.26-.1-.51-.38-.52-.22,0-.34.11-.45.27-.05-.21-.08-.47-.26-.58-.08-.05-.16-.02-.21.06-.04.08-.06.17-.06.26,0,.26.03.5.06.77-.22-.35-.5-.69-.94-.73-.03,0-.04.02-.04.04,0,.21.07.4.17.6-.2-.12-.45-.26-.68-.17-.16.06-.25.22-.23.4.05.4.33.75.59,1.05ZM297.76,117.33c.09.44-.14.92-.42,1.25l-.27.29c-.1.11-.2.2-.32.3.13.21.14.48.03.7-.07.14-.17.26-.29.37.17.13.29.27.25.5-.04.22-.23.36-.45.33-.08-.01-.15-.03-.23-.06.04.32-.02.58-.28.78-.28.19-.79.34-1.06.03-.03.33-.21.61-.5.77-.38.2-.72.02-.99-.26h-.02c.02.13.04.23.04.36,0,.17-.08.33-.22.42-.08.05-.19.04-.28.02-.26-.06-.48-.21-.67-.4-.04.26-.08.58-.33.72-.08.04-.16.03-.21-.04-.11-.15-.13-.38-.15-.57-.19.26-.61.44-.9.38-.23-.05-.42-.19-.55-.38h-.02c-.21.24-.57.39-.88.38-.48-.02-.73-.47-.77-.91-.14.16-.34.35-.57.32-.29-.03-.45-.27-.51-.54-.33-.17-.62-.47-.6-.87-.28.12-.6.05-.8-.19-.17-.21-.11-.51.03-.73-.54,0-.96-.36-1.01-.9-.03-.27,0-.54.06-.82-.28.02-.58-.15-.67-.43-.11-.31-.08-.55.08-.83.16-.29.41-.51.71-.68-.13-.15-.23-.34-.08-.51l.06-.06c-.22-.22-.3-.5-.13-.78.1-.16.2-.3.35-.42-.18-.18-.35-.35-.4-.61-.02-.15.02-.28.11-.39.13-.16.29-.11.45-.01-.18-.36-.13-.86.11-1.18.09-.12.21-.19.35-.22.25-.05.51.01.77.07-.03-.14.04-.26.15-.33.2-.14.38.02.52.16,0-.22.08-.42.2-.59.07-.1.18-.15.31-.12.21.04.41.2.57.34,0-.25.05-.54.21-.74.09-.11.22-.18.36-.18.3,0,.32.47.31.68.2-.26.48-.51.81-.56.38-.06.73.19.81.56h.02c.32-.3.64-.54,1.07-.66.22-.06.5-.05.64.16.08.12.12.26.1.4l-.03.21c.26-.12.3-.2.58-.28.19-.05.39-.08.58-.06.29.03.46.22.57.47.44-.17.91-.15,1.22.23.25.32.28.74.16,1.12.12,0,.24-.02.35.03.25.13.4.38.44.66.03.25,0,.49-.08.73,0,0,0,.02,0,.02.16-.03.29-.08.49-.05.15.02.28.11.33.25.07.2-.15.43-.28.55.14.03.33.07.42.16.15.15.04.41-.08.55-.07.09-.16.16-.25.23v.02c.29.19.65.5.72.86Z"/>
  </g>
  <g>
    <path class="cls-11" d="M291.19,104.26c.33.31.42.83.38,1.26l-.05.39c-.02.14-.05.28-.09.43.23.09.39.31.43.56.02.16,0,.31-.02.47.21,0,.4.05.49.26.09.2.02.43-.17.53-.07.04-.14.06-.22.09.22.23.33.48.23.8-.12.32-.44.74-.84.64.17.28.19.62.04.92-.19.38-.58.44-.96.37h-.02c.09.1.17.18.24.28.1.14.13.31.06.47-.04.09-.13.14-.22.18-.25.1-.51.11-.78.06.12.24.27.52.15.78-.04.08-.11.12-.2.09-.18-.06-.33-.24-.46-.37,0,.32-.23.71-.51.84-.21.09-.45.09-.67,0h-.02c-.03.33-.24.66-.5.83-.4.27-.87.04-1.16-.29-.02.21-.08.48-.27.59-.25.14-.53.04-.73-.14-.37.06-.77-.02-1-.36-.16.26-.46.39-.76.31-.26-.07-.39-.35-.4-.61-.44.32-.99.26-1.35-.14-.18-.2-.31-.44-.42-.7-.22.18-.56.21-.8.04-.26-.19-.38-.4-.41-.72-.03-.33.03-.65.18-.96-.19-.05-.39-.14-.36-.37v-.08c-.3-.05-.53-.23-.55-.55-.01-.18,0-.36.04-.54-.25-.04-.49-.08-.68-.26-.1-.1-.15-.24-.14-.38.01-.21.17-.26.36-.27-.35-.19-.61-.62-.6-1.02,0-.15.06-.27.16-.38.18-.19.42-.29.66-.39-.1-.1-.12-.23-.07-.36.08-.23.32-.21.52-.17-.12-.18-.18-.38-.18-.6,0-.12.06-.23.18-.28.2-.09.45-.07.66-.06-.14-.21-.27-.47-.26-.73,0-.14.07-.27.19-.36.25-.18.53.2.64.37,0-.33.1-.7.33-.93.27-.26.7-.27.98-.02h.02c.08-.44.2-.82.48-1.17.15-.18.38-.33.61-.25.13.05.24.14.31.27l.1.19c.14-.25.13-.34.31-.57.13-.15.27-.29.44-.39.25-.15.5-.09.74.05.26-.39.65-.66,1.13-.52.39.11.66.44.79.81.09-.07.18-.16.31-.18.28-.04.55.07.74.28.17.18.28.4.36.64,0,0,0,.02.01.02.12-.12.19-.23.38-.33.13-.07.29-.07.41.01.18.12.13.43.09.61.14-.06.3-.14.44-.12.21.03.27.31.26.5,0,.11-.04.22-.07.33v.02c.36-.02.83.03,1.1.28ZM285.9,103.56c-.1-.23-.33-.43-.58-.34-.36.13-.63.65-.74,1-.14-.08-.31-.07-.43.05-.07.07-.11.14-.17.23h0c0-.22-.04-.49-.2-.64-.09-.08-.23-.11-.35-.07-.21.08-.24.44-.24.63-.14-.16-.3-.32-.51-.36-.21-.05-.41.04-.52.23-.18.32-.08.72.19.96-.42.01-.76.33-.81.75-.14-.22-.38-.36-.61-.2-.18.12-.21.29-.21.48-.16-.15-.34-.33-.55-.32-.09,0-.14.08-.14.17,0,.09.05.17.1.25.15.21.32.39.49.59-.38-.16-.81-.27-1.19-.05-.02.01-.02.04,0,.06.13.17.29.29.48.39-.24.02-.52.05-.65.25-.1.15-.08.33.04.46.27.29.71.42,1.09.51-.07.14-.04.29.07.39.15.13.31.17.51.24-.23.04-.4.07-.58.21-.12.1-.17.25-.12.4.11.31.38.54.7.6.11.02.2.02.31.02-.12.13-.26.32-.09.47.15.14.39.1.59.04-.07.2-.1.4-.07.61.04.28.21.53.51.51.27-.02.54-.2.73-.4,0,.15,0,.36.18.4.46.1.62-.67.72-.99.04.17.08.33.15.49.11.26.31.54.62.43.58-.2.45-1.25.31-1.71.19.21.54.56.83.33.32-.25-.06-.87-.23-1.13.13.08.27.13.42.1.11-.02.2-.08.24-.19.22.14.42.26.68.27.14,0,.27-.06.35-.18.21-.33-.02-.7-.31-.91.35-.16.49-.59.42-.95-.06-.32-.4-.56-.7-.64.21-.21.44-.44.53-.72.04-.13.03-.26-.02-.38-.12-.27-.43-.21-.63-.12.13-.16.24-.33.27-.54.04-.25-.06-.51-.25-.67-.16-.13-.36-.14-.54-.04.02-.34,0-.65-.12-.96Z"/>
    <path class="cls-9" d="M285.32,103.22c.26-.1.49.11.58.34.12.31.14.62.12.96.18-.1.38-.09.54.04.19.16.29.42.25.67-.03.21-.14.37-.27.54.21-.1.51-.16.63.12.06.12.06.25.02.38-.09.29-.31.51-.53.72.3.08.64.32.7.64.06.35-.08.79-.42.95.29.21.52.57.31.91-.08.12-.2.19-.35.18-.26-.01-.47-.13-.68-.27-.04.11-.13.17-.24.19-.15.03-.29-.02-.42-.1.17.27.54.88.23,1.13-.29.23-.64-.12-.83-.33.14.46.26,1.52-.31,1.71-.32.11-.52-.17-.62-.43-.07-.16-.1-.32-.15-.49-.1.31-.26,1.09-.72.99-.18-.04-.19-.24-.18-.4-.2.2-.46.38-.73.4-.31.02-.47-.23-.51-.51-.03-.21,0-.41.07-.61-.19.06-.43.1-.59-.04-.17-.15-.03-.34.09-.47-.11,0-.21,0-.31-.02-.32-.06-.6-.29-.7-.6-.05-.15,0-.3.12-.4.19-.15.35-.17.58-.21-.19-.07-.35-.11-.51-.24-.12-.1-.14-.25-.07-.39-.39-.09-.82-.21-1.09-.51-.12-.13-.14-.31-.04-.46.13-.21.42-.24.65-.25-.19-.1-.35-.22-.48-.39-.02-.02-.01-.05,0-.06.38-.22.81-.11,1.19.05-.18-.19-.34-.38-.49-.59-.06-.08-.1-.16-.1-.25,0-.09.05-.16.14-.17.21-.01.39.17.55.32,0-.19.03-.35.21-.48.23-.15.47-.01.61.2.05-.42.38-.74.81-.75-.27-.25-.37-.64-.19-.96.1-.19.31-.28.52-.23.21.05.36.2.51.36,0-.19.04-.55.24-.63.12-.04.25-.01.35.07.16.15.19.42.2.62h0c.05-.07.1-.14.17-.21.12-.12.29-.13.43-.05.12-.35.39-.87.74-1Z"/>
  </g>
  <g>
    <path class="cls-11" d="M300.62,129.84c-.21.4-.69.62-1.12.69l-.39.06c-.14.02-.28.03-.43.03-.03.25-.19.46-.43.56-.15.06-.3.09-.46.1.05.21.05.39-.12.54-.17.14-.41.13-.56-.03-.05-.06-.1-.12-.14-.19-.17.28-.38.44-.71.42-.34-.03-.83-.23-.84-.65-.23.24-.55.34-.88.28-.42-.08-.57-.45-.6-.83v-.02c-.08.11-.13.21-.21.31-.11.13-.27.21-.44.18-.09-.02-.17-.09-.23-.16-.16-.21-.24-.46-.26-.74-.2.18-.43.39-.72.35-.09-.01-.15-.08-.14-.17,0-.19.14-.38.24-.54-.31.08-.75-.04-.94-.28-.14-.18-.21-.41-.18-.64l-.02-.02c-.31.06-.69-.06-.92-.27-.36-.32-.26-.83-.02-1.19-.21.04-.49.05-.64-.11-.2-.21-.17-.5-.05-.74-.15-.34-.18-.75.09-1.06-.29-.08-.5-.35-.49-.66,0-.27.24-.46.48-.54-.42-.35-.51-.89-.21-1.34.15-.23.35-.42.57-.59-.23-.17-.35-.48-.25-.76.11-.3.29-.47.59-.59.31-.12.64-.14.97-.07,0-.2.03-.41.26-.44h.08c-.03-.32.08-.59.39-.7.17-.06.35-.1.53-.1-.02-.25-.05-.49.08-.72.07-.13.19-.2.33-.23.2-.04.3.1.35.27.09-.39.45-.75.83-.84.14-.03.28-.02.41.05.23.12.39.33.55.54.07-.12.2-.17.33-.16.24.02.28.25.3.46.14-.16.32-.28.53-.33.12-.03.23,0,.32.1.14.17.19.42.22.62.16-.18.39-.39.63-.44.14-.03.28,0,.39.09.23.19-.06.57-.19.72.32-.08.7-.09.98.08.33.2.44.61.27.94v.02c.45-.04.85-.02,1.25.16.21.09.42.28.4.53-.01.14-.07.27-.18.37l-.16.15c.28.07.36.03.63.15.18.08.35.18.49.32.21.21.22.46.14.73.44.15.8.46.8.96,0,.4-.25.75-.59.97.09.07.2.14.25.25.12.26.07.55-.08.79-.13.21-.32.37-.53.51,0,0-.02.01-.01.02.14.08.27.12.41.28.1.11.15.26.09.4-.07.2-.38.24-.56.24.09.12.21.26.22.39.02.21-.23.34-.41.37-.11.02-.22.02-.34.02h-.01c.11.34.19.81.01,1.13ZM299.94,124.55c.19-.15.34-.43.18-.65-.22-.31-.78-.44-1.16-.46.04-.16-.01-.32-.16-.4-.08-.05-.17-.07-.26-.1h.01c.2-.07.45-.17.55-.36.06-.11.05-.25-.02-.35-.13-.18-.48-.12-.67-.07.12-.18.23-.37.22-.58,0-.21-.15-.39-.36-.44-.36-.09-.71.1-.88.43-.12-.41-.52-.64-.93-.59.17-.19.25-.46.04-.64-.17-.14-.33-.13-.51-.08.1-.19.23-.41.17-.61-.03-.09-.11-.12-.2-.09-.08.03-.16.09-.22.16-.16.2-.3.41-.44.63.05-.41.05-.85-.26-1.16-.02-.02-.05-.01-.06,0-.13.17-.2.36-.25.57-.08-.23-.18-.49-.41-.57-.17-.05-.34,0-.43.16-.21.34-.22.79-.21,1.19-.15-.03-.29.03-.36.17-.09.18-.09.35-.1.55-.09-.21-.16-.37-.35-.51-.12-.09-.28-.1-.41-.01-.27.18-.42.51-.4.83,0,.11.03.2.06.31-.16-.08-.38-.17-.48.03-.1.18,0,.41.11.58-.21-.02-.41,0-.61.09-.26.11-.46.34-.36.63.09.26.33.47.58.61-.15.04-.35.1-.34.28.02.47.81.42,1.14.44-.15.09-.3.16-.44.27-.22.17-.44.43-.25.71.34.51,1.33.12,1.74-.14-.15.24-.4.66-.1.89.32.24.82-.28,1.04-.51-.04.15-.06.3,0,.43.05.1.13.17.25.18-.08.25-.14.47-.09.73.03.14.13.25.26.29.38.12.67-.2.8-.53.24.29.7.32,1.02.16.3-.14.44-.53.44-.84.26.15.53.31.83.32.14,0,.26-.04.36-.12.23-.19.1-.47-.05-.64.19.08.38.14.59.12.25-.02.48-.19.59-.42.09-.19.05-.38-.1-.53.33-.07.63-.16.9-.36Z"/>
    <path class="cls-9" d="M300.11,123.9c.16.23.01.5-.18.65-.27.2-.57.3-.9.36.15.15.19.34.1.53-.11.23-.33.39-.59.42-.21.02-.4-.04-.59-.12.15.17.28.45.05.64-.1.09-.23.13-.36.12-.3-.01-.58-.17-.83-.32,0,.31-.15.7-.44.84-.32.15-.78.13-1.02-.16-.13.33-.42.65-.8.53-.14-.04-.23-.15-.26-.29-.06-.26,0-.48.09-.73-.12-.01-.2-.08-.25-.18-.07-.14-.05-.29,0-.43-.21.23-.71.75-1.04.51-.3-.22-.05-.65.1-.89-.41.25-1.4.64-1.74.14-.19-.28.03-.54.25-.71.14-.1.29-.18.44-.27-.33-.02-1.12.03-1.14-.44,0-.18.19-.24.34-.28-.24-.14-.49-.35-.58-.61-.1-.29.1-.51.36-.63.19-.08.39-.11.61-.09-.11-.17-.21-.39-.11-.58.11-.2.32-.12.48-.03-.03-.1-.05-.2-.06-.31-.02-.33.13-.65.4-.83.13-.09.29-.08.41.01.19.14.26.3.35.51.02-.2.01-.37.1-.55.07-.14.21-.2.36-.17-.01-.4,0-.85.21-1.19.09-.15.26-.21.43-.16.23.08.34.34.41.57.05-.21.12-.4.25-.57.02-.02.04-.02.06,0,.31.31.31.76.26,1.16.14-.22.28-.43.44-.63.06-.07.13-.13.22-.16.09-.03.17,0,.2.09.07.2-.07.42-.17.61.18-.05.35-.06.51.08.21.18.13.45-.04.64.42-.06.81.18.93.59.17-.32.52-.52.88-.43.21.05.35.23.36.44,0,.21-.1.4-.22.58.19-.05.55-.11.67.07.07.1.08.24.02.35-.1.2-.35.3-.55.36h-.01c.1.04.18.06.26.11.14.08.2.24.16.4.37.02.94.15,1.16.46Z"/>
  </g>
  <g>
    <path class="cls-11" d="M325.53,106.81c.07.38-.11.79-.32,1.07l-.2.25c-.07.09-.15.17-.24.25.1.18.11.41.02.6-.06.12-.13.22-.22.32.13.11.22.23.19.43-.03.19-.18.31-.35.29-.06,0-.12-.03-.18-.05.03.27-.01.5-.21.67-.22.16-.6.29-.81.03-.02.28-.16.53-.38.66-.29.17-.55.02-.76-.22h-.01c.01.11.03.2.03.31,0,.14-.06.28-.17.36-.06.04-.14.04-.21.02-.2-.05-.36-.18-.51-.35-.03.23-.06.5-.25.62-.06.04-.12.03-.16-.03-.09-.13-.1-.33-.12-.49-.14.22-.46.38-.69.33-.17-.04-.32-.16-.42-.33h-.02c-.16.2-.44.33-.67.32-.37-.01-.56-.41-.59-.78-.11.14-.26.3-.43.28-.22-.03-.34-.23-.39-.46-.25-.14-.47-.4-.46-.75-.21.1-.46.04-.61-.16-.13-.18-.08-.44.02-.62-.42,0-.73-.31-.77-.77-.02-.23,0-.46.05-.7-.22.02-.44-.13-.51-.37-.08-.26-.06-.47.06-.71.13-.25.31-.44.54-.58-.1-.13-.18-.29-.06-.44l.04-.05c-.17-.19-.23-.43-.1-.67.07-.13.15-.26.26-.36-.14-.16-.27-.3-.3-.52-.02-.12.01-.24.08-.33.1-.14.22-.1.34,0-.14-.31-.1-.74.08-1.01.07-.1.16-.16.27-.19.19-.04.39,0,.58.06-.02-.12.03-.22.12-.29.15-.12.29.01.4.14,0-.19.06-.36.15-.51.06-.09.14-.13.24-.11.16.04.31.17.43.29,0-.21.04-.47.16-.64.07-.1.16-.16.27-.16.23,0,.24.41.23.58.15-.22.37-.44.62-.48.29-.05.55.16.62.48h.01c.24-.26.48-.46.81-.56.17-.05.38-.04.49.13.06.1.09.22.07.34l-.02.18c.2-.1.23-.17.45-.24.15-.04.29-.07.45-.05.22.02.35.19.44.4.33-.14.7-.13.93.2.19.27.21.63.13.96.09,0,.19-.02.27.03.19.11.31.32.34.56.03.21,0,.42-.06.62,0,0,0,.02,0,.02.13-.02.22-.07.38-.04.11.02.21.09.25.21.05.17-.11.37-.21.47.11.03.25.06.32.14.12.13.03.35-.06.47-.06.07-.12.14-.19.19h0c.22.18.5.44.55.75ZM322.56,103.68c.04-.21,0-.47-.21-.53-.28-.09-.68.14-.9.32-.05-.13-.16-.2-.29-.18-.07.01-.13.04-.2.07h0c.09-.16.19-.36.15-.55-.02-.1-.09-.19-.18-.22-.16-.05-.34.19-.43.32-.02-.18-.05-.37-.15-.5-.11-.14-.28-.18-.42-.1-.26.14-.37.46-.31.77-.27-.2-.62-.15-.83.12.01-.22-.08-.44-.29-.45-.17,0-.26.1-.34.23-.04-.18-.06-.4-.2-.5-.06-.04-.12-.02-.16.05-.03.07-.05.15-.05.23,0,.22.02.43.05.66-.16-.3-.38-.59-.72-.63-.02,0-.03.02-.03.04,0,.18.05.35.13.51-.15-.11-.34-.23-.52-.15-.12.05-.19.19-.18.34.04.34.25.64.45.9-.11.06-.16.18-.13.31.04.17.12.28.21.42-.16-.09-.27-.15-.46-.14-.12,0-.22.08-.25.22-.07.27,0,.56.17.77.06.07.12.12.18.17-.13.03-.3.09-.27.29.03.17.2.27.35.32-.13.1-.24.23-.31.39-.1.21-.11.47.09.61.18.12.42.13.63.09-.07.11-.16.25-.06.37.24.3.68-.16.88-.33-.05.14-.1.27-.13.42-.05.23-.05.53.2.61.44.15.84-.65.96-1.04.03.24.08.66.37.64.31-.02.35-.63.36-.9.04.12.11.23.21.28.08.04.16.04.24-.02.07.21.15.39.3.53.09.08.19.1.3.05.28-.13.3-.5.21-.79.29.06.57-.17.68-.45.11-.25,0-.59-.15-.8.23-.04.46-.09.65-.24.08-.07.13-.16.15-.28.04-.25-.17-.36-.34-.4.15-.05.29-.11.41-.24.14-.15.19-.39.14-.6-.04-.17-.16-.28-.31-.3.16-.22.29-.45.35-.73Z"/>
    <path class="cls-9" d="M322.35,103.15c.2.06.25.32.21.53-.06.28-.19.5-.35.73.16.02.28.12.31.3.05.21,0,.44-.14.6-.11.13-.25.19-.41.24.17.03.39.14.34.4-.02.11-.07.21-.15.28-.18.15-.42.2-.65.24.15.21.25.54.15.8-.12.28-.4.51-.68.45.08.29.07.66-.21.79-.1.05-.21.03-.3-.05-.16-.14-.23-.32-.3-.53-.08.06-.16.05-.24.02-.11-.05-.17-.16-.21-.28-.02.27-.05.89-.36.9-.29.02-.34-.41-.37-.64-.12.39-.51,1.19-.96,1.04-.24-.08-.25-.38-.2-.61.03-.14.08-.28.13-.42-.2.17-.64.63-.88.33-.09-.12,0-.26.06-.37-.21.04-.46.04-.63-.09-.2-.14-.19-.39-.09-.61.07-.16.18-.29.31-.39-.15-.05-.31-.15-.35-.32-.04-.19.13-.26.27-.29-.07-.05-.13-.1-.18-.17-.17-.2-.24-.5-.17-.77.03-.13.13-.21.25-.22.18,0,.3.06.46.14-.09-.14-.17-.25-.21-.42-.03-.13.02-.25.13-.31-.2-.26-.41-.56-.45-.9-.02-.15.05-.29.18-.34.17-.08.36.04.52.15-.07-.17-.12-.33-.13-.51,0-.02.01-.04.03-.04.33.04.55.33.72.63-.02-.22-.04-.44-.05-.66,0-.08.01-.16.05-.23.03-.07.1-.09.16-.05.14.1.17.31.2.5.08-.13.17-.23.34-.23.21,0,.3.22.29.45.22-.27.56-.32.83-.12-.06-.31.06-.63.31-.77.15-.08.31-.04.42.1.11.14.14.32.15.5.09-.13.27-.37.43-.32.09.03.16.12.18.22.04.18-.06.39-.15.54h0c.07-.02.13-.05.2-.06.13-.02.24.05.29.18.23-.19.62-.41.9-.32Z"/>
  </g>
  <g>
    <path class="cls-11" d="M320.32,170.96c.09.44-.14.92-.42,1.25l-.27.29c-.1.11-.2.2-.32.3.13.21.14.48.03.7-.07.14-.17.26-.29.37.17.13.29.27.25.5-.04.22-.23.36-.45.33-.08-.01-.15-.03-.23-.06.04.32-.02.58-.28.78-.28.19-.79.34-1.06.03-.03.33-.21.61-.5.77-.38.2-.72.02-.99-.26h-.02c.02.13.04.23.04.36,0,.17-.08.33-.22.42-.08.05-.19.04-.28.02-.26-.06-.48-.21-.67-.4-.04.26-.08.58-.33.72-.08.04-.16.03-.21-.04-.11-.15-.13-.38-.15-.57-.19.26-.61.44-.9.38-.23-.05-.42-.19-.55-.38h-.02c-.21.24-.57.39-.88.38-.48-.02-.73-.47-.77-.91-.14.16-.34.35-.57.32-.29-.03-.45-.27-.51-.54-.33-.17-.62-.47-.6-.87-.28.12-.6.05-.8-.19-.17-.21-.11-.51.03-.73-.54,0-.96-.36-1.01-.9-.03-.27,0-.54.06-.82-.28.02-.58-.15-.67-.43-.11-.31-.08-.55.08-.83.16-.29.41-.51.71-.68-.13-.15-.23-.34-.08-.51l.06-.06c-.22-.22-.3-.5-.13-.78.1-.16.2-.3.35-.42-.18-.18-.35-.35-.4-.61-.02-.15.02-.28.11-.39.13-.16.29-.11.45-.01-.18-.36-.13-.86.11-1.18.09-.12.21-.19.35-.22.25-.05.51.01.77.07-.03-.14.04-.26.15-.33.2-.14.38.02.52.16,0-.22.08-.42.2-.59.07-.1.18-.15.31-.12.21.04.41.2.57.34,0-.25.05-.54.21-.74.09-.11.22-.18.36-.18.3,0,.32.47.31.68.2-.26.48-.51.81-.56.38-.06.73.19.81.56h.02c.32-.3.64-.54,1.07-.66.22-.06.5-.05.64.16.08.12.12.26.1.4l-.03.21c.26-.12.3-.2.58-.28.19-.05.39-.08.58-.06.29.03.46.22.57.47.44-.17.91-.15,1.22.23.25.32.28.74.16,1.12.12,0,.24-.02.35.03.25.13.4.38.44.66.03.25,0,.49-.08.73,0,0,0,.02,0,.02.16-.03.29-.08.49-.05.15.02.28.11.33.25.07.2-.15.43-.28.55.14.03.33.07.42.16.15.15.04.41-.08.55-.07.09-.16.16-.25.23v.02c.29.19.65.5.72.86ZM316.42,167.31c.05-.24-.01-.54-.28-.62-.37-.1-.89.16-1.19.38-.07-.15-.21-.24-.38-.21-.09.02-.17.05-.27.09h0c.12-.19.25-.43.2-.64-.03-.12-.12-.22-.24-.26-.21-.06-.45.22-.56.37-.02-.21-.06-.43-.2-.59-.14-.16-.36-.2-.55-.11-.33.16-.48.53-.41.89-.35-.24-.81-.17-1.09.14.01-.26-.1-.51-.38-.52-.22,0-.34.11-.45.27-.05-.21-.08-.47-.26-.58-.08-.05-.16-.02-.21.06-.04.08-.06.17-.06.26,0,.26.03.5.06.77-.22-.35-.5-.69-.94-.73-.03,0-.04.02-.04.04,0,.21.07.4.17.6-.2-.12-.45-.26-.68-.17-.16.06-.25.22-.23.4.05.4.33.75.59,1.05-.14.07-.2.21-.17.36.05.2.16.32.27.49-.21-.1-.36-.18-.6-.17-.16,0-.28.1-.33.25-.09.32,0,.66.22.9.07.08.15.14.24.2-.17.03-.4.11-.35.33.04.2.26.31.45.37-.17.12-.31.27-.41.46-.13.25-.14.55.12.71.23.14.55.15.83.1-.09.12-.21.29-.08.43.32.35.89-.19,1.16-.38-.06.16-.13.32-.17.49-.07.27-.06.61.26.71.58.18,1.1-.75,1.25-1.21.03.28.11.77.48.75.4-.02.46-.74.48-1.05.06.14.14.27.28.33.1.05.21.05.31-.02.09.24.19.45.4.62.11.09.25.11.39.06.37-.15.39-.58.28-.92.37.07.74-.2.89-.52.14-.3,0-.69-.19-.93.3-.05.61-.1.85-.28.11-.08.17-.19.2-.32.06-.29-.22-.42-.45-.46.2-.06.39-.13.53-.28.18-.18.25-.45.19-.7-.05-.2-.2-.32-.41-.35.21-.26.38-.53.46-.85Z"/>
    <path class="cls-9" d="M316.15,166.69c.27.07.33.38.28.62-.08.32-.25.59-.46.85.21.02.36.14.41.35.06.24,0,.52-.19.7-.15.15-.33.22-.53.28.22.04.5.17.45.46-.03.13-.09.24-.2.32-.24.18-.55.23-.85.28.2.24.33.63.19.93-.15.32-.52.6-.89.52.11.34.09.77-.28.92-.13.05-.28.03-.39-.06-.21-.16-.31-.37-.4-.62-.1.07-.21.06-.31.02-.14-.06-.22-.19-.28-.33-.02.31-.07,1.03-.48,1.05-.37.02-.45-.47-.48-.75-.16.46-.67,1.39-1.25,1.21-.32-.1-.32-.44-.26-.71.04-.17.1-.32.17-.49-.27.2-.84.73-1.16.38-.12-.14-.01-.31.08-.43-.28.05-.6.04-.83-.1-.26-.16-.25-.46-.12-.71.09-.19.23-.34.41-.46-.19-.06-.41-.17-.45-.37-.05-.22.18-.3.35-.33-.09-.06-.17-.12-.24-.2-.23-.24-.32-.58-.22-.9.05-.15.17-.25.33-.25.24,0,.39.07.6.17-.12-.17-.22-.29-.27-.49-.04-.15.03-.29.17-.36-.26-.3-.54-.65-.59-1.05-.02-.18.07-.33.23-.4.23-.09.48.05.68.17-.1-.2-.16-.39-.17-.6,0-.03.02-.04.04-.04.43.05.72.39.94.73-.03-.26-.06-.51-.06-.77,0-.09.02-.19.06-.26.05-.08.13-.11.21-.06.18.11.22.37.26.58.11-.15.23-.27.45-.27.27,0,.39.26.38.52.28-.31.74-.38,1.09-.14-.07-.36.08-.73.41-.89.19-.09.41-.05.55.11.14.16.18.37.2.59.12-.16.35-.43.56-.37.12.03.21.14.24.26.05.21-.08.45-.2.63h0c.09-.02.17-.06.27-.07.16-.03.31.06.38.21.3-.22.82-.48,1.19-.38Z"/>
  </g>
  <polygon class="cls-12" points="129.42 189.5 129.42 208.87 140.43 208.87 140.43 212.92 158.54 212.92 158.54 189.5 129.42 189.5"/>
  <polygon class="cls-10" points="138.01 189.5 138.01 197.63 142.84 197.63 142.84 204.57 149.95 204.57 149.95 189.5 138.01 189.5"/>
  <polygon class="cls-8" points="158.88 174.78 160.18 182.44 166.87 181.1 165.24 173.52 158.88 174.78"/>
  <polygon class="cls-8" points="239.19 182.44 239.6 190.35 245.99 190.19 245.67 182.44 239.19 182.44"/>
  <polygon class="cls-8" points="268.15 188.59 269.62 196.38 275.92 195.37 274.58 187.73 268.15 188.59"/>
  <polygon class="cls-8" points="246.79 196.01 248.25 203.79 255.05 202.7 253.71 195.07 246.79 196.01"/>
  <polygon class="cls-8" points="205.61 84.85 207.26 94.47 226.89 91.75 222.32 61.91 188.22 66.18 189.32 73.07 216.54 70.44 218.57 82.63 205.61 84.85"/>
  <polygon class="cls-8" points="337.39 166.36 343.12 171.82 347.65 167.32 342.09 161.91 337.39 166.36"/>
  <polygon class="cls-8" points="318.05 170.54 324.55 190.92 331.15 188.92 324.32 168.89 318.05 170.54"/>
  <g>
    <path class="cls-11" d="M249.34,196.04c.03.45-.26.89-.58,1.18l-.3.25c-.11.09-.23.17-.36.25.11.23.08.49-.07.7-.09.13-.21.23-.34.33.15.15.25.31.18.53-.07.21-.28.33-.49.27-.08-.02-.15-.05-.22-.09,0,.32-.09.57-.38.73-.31.15-.82.24-1.05-.11-.07.32-.29.58-.6.7-.4.15-.72-.08-.95-.39h-.02c0,.12,0,.23,0,.36-.02.16-.12.32-.28.38-.09.04-.19.02-.28-.02-.25-.1-.45-.27-.61-.49-.08.26-.16.56-.42.67-.08.03-.16.01-.21-.07-.09-.16-.08-.4-.08-.58-.22.23-.66.36-.95.26-.22-.08-.39-.24-.49-.45h-.02c-.24.21-.62.3-.92.25-.48-.08-.66-.56-.64-1-.16.14-.39.3-.6.24-.28-.07-.41-.33-.44-.6-.31-.21-.55-.55-.48-.94-.29.08-.61-.03-.77-.3-.14-.23-.04-.52.12-.72-.54-.07-.9-.48-.89-1.02,0-.27.07-.53.17-.8-.28-.02-.55-.22-.61-.52-.06-.32,0-.55.19-.81.2-.26.47-.46.79-.58-.11-.17-.19-.37-.01-.52l.06-.05c-.19-.24-.24-.53-.03-.79.12-.14.24-.27.4-.37-.15-.2-.3-.39-.31-.66,0-.15.06-.27.16-.37.15-.14.3-.07.44.05-.13-.38-.02-.87.26-1.15.1-.1.23-.16.38-.17.26-.01.51.08.75.17,0-.14.07-.25.19-.31.22-.11.37.07.5.23.04-.22.13-.41.28-.56.09-.09.2-.12.32-.08.2.07.38.25.52.41.04-.24.12-.53.3-.71.1-.1.24-.15.38-.13.3.04.25.51.22.71.23-.23.55-.44.88-.45.38,0,.7.28.73.66h.02c.35-.26.7-.45,1.14-.51.23-.03.5.02.62.24.06.13.08.27.04.41l-.06.21c.27-.09.32-.16.62-.2.2-.03.39-.03.59.02.28.07.43.27.5.54.45-.11.93-.03,1.18.39.21.35.18.77.01,1.13.12.01.24,0,.35.08.23.16.35.43.35.71,0,.25-.07.48-.18.71,0,0,0,.02,0,.02.17,0,.3-.04.5.02.14.04.26.14.29.29.04.21-.2.4-.35.5.14.05.31.11.4.22.13.17-.01.41-.15.54-.08.08-.18.14-.28.19v.02c.26.23.58.58.6.95ZM245.96,191.91c.08-.23.06-.54-.19-.65-.35-.15-.9.04-1.23.22-.05-.16-.18-.26-.35-.26-.1,0-.18.03-.28.05h0c.14-.17.3-.39.28-.61-.01-.12-.09-.24-.21-.29-.2-.09-.47.16-.61.3,0-.22,0-.43-.12-.61-.12-.18-.33-.25-.54-.18-.35.11-.55.47-.52.83-.32-.28-.78-.27-1.1,0,.05-.25-.03-.52-.3-.56-.22-.03-.35.07-.48.2-.02-.22-.02-.47-.18-.61-.07-.06-.16-.04-.21.03-.05.07-.08.16-.1.25-.03.26-.04.5-.04.77-.17-.37-.41-.75-.83-.85-.02,0-.05.01-.05.04-.02.21.02.41.09.62-.18-.15-.41-.32-.65-.26-.17.04-.28.19-.28.36,0,.4.23.79.45,1.12-.15.05-.23.18-.22.34.02.2.11.34.21.52-.19-.13-.33-.22-.57-.25-.15-.01-.29.06-.36.21-.13.3-.09.65.1.92.06.09.13.16.21.23-.18.01-.41.06-.39.28.02.21.22.34.4.43-.19.1-.35.23-.46.4-.16.23-.21.53.03.72.21.17.53.22.81.21-.11.11-.24.26-.14.42.27.39.91-.07,1.2-.23-.08.15-.17.3-.23.46-.1.26-.14.6.16.74.55.25,1.19-.6,1.4-1.03,0,.28,0,.78.38.81.4.03.55-.67.61-.98.04.15.11.28.23.36.09.06.2.08.31.02.06.25.13.47.31.66.1.1.24.14.38.11.38-.1.46-.52.4-.87.36.12.76-.1.95-.4.18-.27.1-.68-.07-.95.3,0,.62-.02.88-.17.12-.07.2-.17.24-.29.1-.28-.17-.45-.38-.52.2-.03.4-.08.56-.21.2-.15.31-.41.28-.66-.02-.2-.16-.35-.36-.4.24-.23.45-.47.57-.78Z"/>
    <path class="cls-9" d="M245.77,191.26c.25.11.28.42.19.65-.12.31-.32.55-.57.78.2.05.34.19.36.4.03.25-.08.51-.28.66-.17.13-.36.18-.56.21.22.07.48.23.38.52-.04.13-.12.23-.24.29-.26.15-.58.16-.88.17.16.26.25.67.07.95-.19.3-.59.52-.95.4.07.35-.02.77-.4.87-.14.04-.28,0-.38-.11-.18-.19-.25-.41-.31-.66-.11.05-.21.04-.31-.02-.13-.08-.2-.22-.23-.36-.06.31-.21,1.01-.61.98-.37-.03-.38-.53-.38-.81-.21.43-.85,1.29-1.4,1.03-.3-.14-.26-.48-.16-.74.06-.16.15-.31.23-.46-.29.16-.93.62-1.2.23-.1-.15.03-.31.14-.42-.28.01-.6-.04-.81-.21-.24-.19-.19-.49-.03-.72.12-.17.28-.3.46-.4-.18-.09-.39-.22-.4-.43-.02-.23.21-.27.39-.28-.08-.07-.15-.14-.21-.23-.19-.27-.24-.62-.1-.92.07-.15.21-.22.36-.21.24.02.38.12.57.25-.09-.18-.18-.32-.21-.52-.02-.15.07-.28.22-.34-.22-.33-.45-.72-.45-1.12,0-.18.11-.32.28-.36.24-.06.47.11.65.26-.07-.21-.11-.4-.09-.62,0-.03.02-.04.05-.04.42.1.66.48.83.85,0-.26,0-.51.04-.77.01-.09.04-.18.1-.25.06-.07.15-.09.21-.03.16.14.17.39.18.61.13-.14.26-.24.48-.2.27.04.35.31.3.56.32-.27.78-.28,1.1,0-.03-.37.17-.72.52-.83.2-.07.42,0,.54.18.12.17.13.39.12.61.14-.14.41-.38.61-.3.11.05.19.16.21.29.02.22-.14.44-.28.59h0c.1-.01.18-.03.28-.04.17,0,.3.1.35.26.33-.18.87-.37,1.23-.22Z"/>
  </g>
  <g>
    <path class="cls-9" d="M121.09,189.1c.27,0,.39.26.38.52.28-.31.74-.38,1.09-.14-.07-.36.08-.73.41-.89.19-.09.41-.05.55.11.14.16.18.37.2.59.12-.16.35-.43.56-.37.12.03.21.14.24.26.05.21-.08.45-.2.63h0c.09-.02.17-.06.27-.07.16-.03.31.06.38.21.3-.22.82-.48,1.19-.38.27.07.33.38.28.62-.08.32-.25.59-.46.85.21.02.36.14.41.35.06.24,0,.52-.19.7-.15.15-.33.22-.53.28.22.04.5.17.45.46-.03.13-.09.24-.2.32-.24.18-.55.23-.85.28.2.24.33.63.19.93-.15.32-.52.6-.89.52.11.34.09.77-.28.92-.13.05-.28.03-.39-.06-.21-.16-.31-.37-.4-.62-.1.07-.21.06-.31.02-.14-.06-.22-.19-.28-.33-.02.31-.07,1.03-.48,1.05-.37.02-.45-.47-.48-.75-.16.46-.67,1.39-1.25,1.21-.32-.1-.32-.44-.26-.71.04-.17.1-.32.17-.49-.27.2-.84.73-1.16.38-.12-.14-.01-.31.08-.43-.28.05-.6.04-.83-.1-.26-.16-.25-.46-.12-.71.09-.19.23-.34.41-.46-.19-.06-.41-.17-.45-.37-.05-.22.18-.3.35-.33-.09-.06-.17-.12-.24-.2-.23-.24-.32-.58-.22-.9.05-.15.17-.25.33-.25.24,0,.39.07.6.17-.12-.17-.22-.29-.27-.49-.04-.15.03-.29.17-.36-.26-.3-.54-.65-.59-1.05-.02-.18.07-.33.23-.4.23-.09.48.05.68.17-.1-.2-.16-.39-.17-.6,0-.03.02-.04.04-.04.43.05.72.39.94.73-.03-.26-.06-.51-.06-.77,0-.09.02-.19.06-.26.05-.08.13-.11.21-.06.18.11.22.37.26.58.11-.15.23-.27.45-.27Z"/>
    <path class="cls-11" d="M121.75,195.09c.03.28.11.77.48.75.4-.02.46-.74.48-1.05.06.14.14.27.28.33.1.05.21.05.31-.02.09.24.19.45.4.62.11.09.25.11.39.06.37-.15.39-.58.28-.92.37.07.74-.2.89-.52.14-.3,0-.69-.19-.93.3-.05.61-.1.85-.28.11-.08.17-.19.2-.32.06-.29-.22-.42-.45-.46.2-.06.39-.13.53-.28.18-.18.25-.45.19-.7-.05-.2-.2-.32-.41-.35.21-.26.38-.53.46-.85.05-.24-.01-.54-.28-.62-.37-.1-.89.16-1.19.38-.07-.15-.21-.24-.38-.21-.09.02-.17.05-.27.09h0c.12-.19.25-.43.2-.64-.03-.12-.12-.22-.24-.26-.21-.06-.45.22-.56.37-.02-.21-.06-.43-.2-.59-.14-.16-.36-.2-.55-.11-.33.16-.48.53-.41.89-.35-.24-.81-.17-1.09.14.01-.26-.1-.51-.38-.52-.22,0-.34.11-.45.27-.05-.21-.08-.47-.26-.58-.08-.05-.16-.02-.21.06-.04.08-.06.17-.06.26,0,.26.03.5.06.77-.22-.35-.5-.69-.94-.73-.03,0-.04.02-.04.04,0,.21.07.4.17.6-.2-.12-.45-.26-.68-.17-.16.06-.25.22-.23.4.05.4.33.75.59,1.05-.14.07-.2.21-.17.36.05.2.16.32.27.49-.21-.1-.36-.18-.6-.17-.16,0-.28.1-.33.25-.09.32,0,.66.22.9.07.08.15.14.24.2-.17.03-.4.11-.35.33.04.2.26.31.45.37-.17.12-.31.27-.41.46-.13.25-.14.55.12.71.23.14.55.15.83.1-.09.12-.21.29-.08.43.32.35.89-.19,1.16-.38-.06.16-.13.32-.17.49-.07.27-.06.61.26.71.58.18,1.1-.75,1.25-1.21ZM130.33,193.82c.09.44-.14.92-.42,1.25l-.27.29c-.1.11-.2.2-.32.3.13.21.14.48.03.7-.07.14-.17.26-.29.37.17.13.29.27.25.5-.04.22-.23.36-.45.33-.08-.01-.15-.03-.23-.06.04.32-.02.58-.28.78-.28.19-.79.34-1.06.03-.03.33-.21.61-.5.77-.38.2-.72.02-.99-.26h-.02c.02.13.04.23.04.36,0,.17-.08.33-.22.42-.08.05-.19.04-.28.02-.26-.06-.48-.21-.67-.4-.04.26-.08.58-.33.72-.08.04-.16.03-.21-.04-.11-.15-.13-.38-.15-.57-.19.26-.61.44-.9.38-.23-.05-.42-.19-.55-.38h-.02c-.21.24-.57.39-.88.38-.48-.02-.73-.47-.77-.91-.14.16-.34.35-.57.32-.29-.03-.45-.27-.51-.54-.33-.17-.62-.47-.6-.87-.28.12-.6.05-.8-.19-.17-.21-.11-.51.03-.73-.54,0-.96-.36-1.01-.9-.03-.27,0-.54.06-.82-.28.02-.58-.15-.67-.43-.11-.31-.08-.55.08-.83.16-.29.41-.51.71-.68-.13-.15-.23-.34-.08-.51l.06-.06c-.22-.22-.3-.5-.13-.78.1-.16.2-.3.35-.42-.18-.18-.35-.35-.4-.61-.02-.15.02-.28.11-.39.13-.16.29-.11.45-.01-.18-.36-.13-.86.11-1.18.09-.12.21-.19.35-.22.25-.05.51.01.77.07-.03-.14.04-.26.15-.33.2-.14.38.02.52.16,0-.22.08-.42.2-.59.07-.1.18-.15.31-.12.21.04.41.2.57.34,0-.25.05-.54.21-.74.09-.11.22-.18.36-.18.3,0,.32.47.31.68.2-.26.48-.51.81-.56.38-.06.73.19.81.56h.02c.32-.3.64-.54,1.07-.66.22-.06.5-.05.64.16.08.12.12.26.1.4l-.03.21c.26-.12.3-.2.58-.28.19-.05.39-.08.58-.06.29.03.46.22.57.47.44-.17.91-.15,1.22.23.25.32.28.74.16,1.12.12,0,.24-.02.35.03.25.13.4.38.44.66.03.25,0,.49-.08.73,0,0,0,.02,0,.02.16-.03.29-.08.49-.05.15.02.28.11.33.25.07.2-.15.43-.28.55.14.03.33.07.42.16.15.15.04.41-.08.55-.07.09-.16.16-.25.23v.02c.29.19.65.5.72.86Z"/>
  </g>
  <g>
    <path class="cls-11" d="M231.09,148.08c-.25.29-.68.39-1.04.38l-.33-.02c-.12,0-.24-.03-.36-.05-.07.2-.25.34-.45.38-.13.03-.26.02-.39,0,0,.18-.03.33-.2.42-.16.09-.36.04-.45-.12-.03-.06-.05-.12-.08-.18-.19.2-.39.29-.66.23-.27-.08-.63-.33-.56-.67-.23.15-.51.19-.77.08-.32-.14-.38-.46-.33-.78v-.02c-.08.08-.14.15-.23.22-.11.09-.26.12-.39.07-.07-.03-.12-.1-.15-.17-.09-.2-.1-.42-.07-.64-.2.11-.43.25-.65.16-.07-.03-.1-.09-.08-.16.04-.15.19-.28.3-.4-.27.01-.6-.16-.71-.39-.08-.17-.09-.37-.02-.55v-.02c-.27,0-.56-.16-.71-.37-.23-.32-.06-.72.21-.97-.18,0-.4-.04-.5-.2-.12-.2-.05-.43.1-.61-.06-.3,0-.64.27-.85-.22-.12-.34-.37-.28-.62.06-.22.28-.34.5-.36-.28-.35-.25-.81.08-1.12.17-.16.36-.28.57-.39-.16-.17-.19-.45-.05-.66.15-.23.33-.34.59-.38.28-.04.55,0,.81.1.04-.16.11-.33.3-.32h.07c.03-.25.18-.45.45-.49.15-.02.3-.03.45,0,.03-.21.05-.41.2-.57.08-.09.19-.13.31-.13.17,0,.22.13.23.28.15-.3.51-.54.84-.54.12,0,.23.03.32.11.16.14.25.34.34.53.08-.09.19-.11.3-.08.19.06.18.25.16.42.15-.11.32-.17.5-.18.1,0,.19.04.24.13.08.16.07.37.06.54.17-.12.39-.25.6-.25.12,0,.23.04.3.14.15.2-.15.45-.3.55.27-.01.58.05.78.23.23.21.24.57.04.81v.02c.37.04.69.12.99.34.15.11.29.3.22.5-.04.11-.11.21-.22.27l-.16.09c.21.1.29.09.48.23.13.1.25.21.34.35.13.2.09.41-.02.61.33.19.57.51.47.91-.08.33-.35.57-.66.69.06.08.14.14.16.24.04.23-.05.46-.21.63-.15.15-.33.25-.53.33,0,0-.02,0-.01.01.1.09.2.15.28.3.06.11.07.23,0,.34-.1.15-.36.13-.5.1.05.11.12.25.11.36-.02.18-.25.24-.41.24-.09,0-.19-.02-.28-.04h-.01c.02.3,0,.69-.2.92ZM231.55,143.66c.19-.09.36-.29.27-.5-.12-.29-.56-.49-.85-.57.07-.12.05-.26-.05-.35-.06-.05-.12-.09-.19-.13h.01c.17-.02.4-.06.52-.2.07-.08.09-.2.05-.29-.07-.17-.37-.18-.53-.17.13-.13.26-.26.29-.44.03-.18-.05-.34-.21-.42-.28-.13-.6-.03-.8.2-.02-.35-.3-.61-.65-.63.18-.13.29-.33.15-.51-.11-.14-.25-.16-.4-.15.12-.14.27-.3.25-.47,0-.07-.07-.12-.14-.1-.07.01-.14.05-.21.1-.17.14-.32.28-.48.44.12-.32.2-.68.01-.99-.01-.02-.03-.02-.05,0-.14.12-.23.26-.31.42-.02-.2-.05-.43-.23-.53-.12-.07-.28-.05-.38.06-.24.24-.33.61-.4.93-.12-.05-.25-.02-.33.08-.11.13-.14.27-.19.43-.04-.19-.06-.33-.19-.47-.08-.1-.21-.13-.34-.08-.26.1-.44.34-.48.61-.01.09-.01.17-.01.26-.11-.09-.27-.2-.4-.05-.11.13-.08.33-.02.49-.17-.05-.34-.06-.51-.03-.23.05-.44.2-.41.45.02.22.18.44.36.59-.13,0-.3.02-.33.17-.07.39.58.48.84.55-.14.04-.28.08-.41.15-.21.1-.44.28-.34.54.18.47,1.06.32,1.44.18-.17.17-.46.47-.25.71.22.25.72-.09.94-.24-.06.11-.11.23-.08.35.02.09.07.16.17.19-.12.19-.2.36-.21.58,0,.12.05.22.16.28.29.16.58-.05.75-.3.14.28.51.37.8.3.27-.06.46-.36.52-.61.18.17.37.34.62.4.11.03.22.01.32-.04.22-.12.17-.36.08-.53.14.1.28.18.46.2.21.02.43-.08.56-.24.11-.14.11-.3.02-.45.28,0,.54-.03.8-.15Z"/>
    <path class="cls-9" d="M231.82,143.16c.09.21-.08.41-.27.5-.26.12-.52.15-.8.15.09.14.09.31-.02.45-.13.17-.35.26-.56.24-.17-.02-.32-.1-.46-.2.09.17.14.41-.08.53-.1.05-.21.07-.32.04-.24-.06-.44-.24-.62-.4-.06.25-.25.55-.52.61-.29.07-.66-.02-.8-.3-.17.25-.47.46-.75.3-.1-.06-.16-.16-.16-.28,0-.22.09-.39.21-.58-.09-.03-.15-.1-.17-.19-.03-.12.01-.24.08-.35-.22.15-.72.49-.94.24-.2-.23.09-.54.25-.71-.38.14-1.26.29-1.44-.18-.1-.26.13-.44.34-.54.13-.06.27-.1.41-.15-.27-.07-.91-.16-.84-.55.03-.15.2-.17.33-.17-.17-.15-.33-.37-.36-.59-.03-.25.18-.4.41-.45.17-.04.34-.02.51.03-.06-.16-.1-.35.02-.49.12-.15.29-.04.4.05,0-.09,0-.17.01-.26.04-.27.23-.51.48-.61.13-.05.25-.02.34.08.13.15.15.29.19.47.05-.16.08-.3.19-.43.08-.1.21-.13.33-.08.07-.32.16-.69.4-.93.1-.11.26-.13.38-.06.18.1.21.33.23.53.08-.16.18-.3.31-.42.02-.01.04-.01.05,0,.19.3.11.67-.01.99.16-.16.31-.3.48-.44.06-.05.13-.09.21-.1.08-.01.14.03.14.1.02.18-.13.33-.25.47.16-.01.3,0,.4.15.13.18.02.39-.15.51.35.02.62.28.65.63.2-.23.53-.33.8-.2.16.08.24.24.21.42-.03.17-.16.31-.29.44.16,0,.46,0,.53.17.04.09.02.21-.05.29-.12.14-.34.18-.52.2h-.01c.07.04.13.08.19.13.1.09.12.23.05.35.3.08.73.28.85.57Z"/>
  </g>
  <path class="cls-1" d="M117.33,152.19c.56,16.64.32,30.06,0,39.2-.44,12.61-1.07,18.05-1.12,30.5-.06,16.42-.09,24.64,1.12,30.56,5.27,25.72,28.41,41.65,42.63,51.45,16.3,11.22,30.92,16.13,41.57,19.61,11.14,3.65,29.72,9.55,54.7,9.26,10.22-.12,35.63-.69,63.16-14.59,3.43-1.73,4.96-2.69,17.65-10.65,38.06-23.86,57.06-35.77,55.33-34.66,86.99-55.91,85.59-51.72,92.27-59.71,38.85-46.53,36.28-129.09,6.29-147.61-7.8-4.82-25.18-4.31-59.93-3.31-14.61.42-15.97,1.03-45.22,2.83-30.99,1.91-46.48,2.86-65.7,2.74-22.02-.13-39.93-1.49-48.86-2.27-32.28-2.81-39.06-6.03-63.91-6.29-14.56-.16-26.05.84-32.28,1.61-.61.08-4.41.55-7.94,1.13-20.22,3.34-40.4,6.25-50.52,20-8.2,11.14-7.93,24.61-7.72,35.26.31,15.7,5.08,27.91,8.47,34.91Z"/>
  <path class="cls-4" d="M97.93,78.19c19.64-7.25,41.47-17.74,79.07-22.26,36.07-4.34,52.62-4.8,72.63-4.3,33.56.85,36.04,6.87,79.9,8.73,21.83.92,27.93,1.69,51.46,1.83,20.78.13,38.23-.51,61.38-3.7,22.2-3.06,28.92-6.9,33.67-11.22,12.03-10.96,13.61-27.13,13.86-33.97"/>
</svg>